<svg width="132" height="132" viewBox="0 0 132 132" fill="none" xmlns="http://www.w3.org/2000/svg">
<circle cx="66" cy="66" r="59" fill="#7E72F2"/>
<circle cx="66" cy="66" r="65" stroke="#7E72F2" stroke-width="2"/>
<g clip-path="url(#clip0)">
<path d="M96 93.3941C96 94.8397 94.8116 95.9529 93.4392 95.9529H38.5608C37.1141 95.9529 36 94.7655 36 93.3941V38.5588C36 37.1132 37.1884 36 38.5608 36H93.436C94.8827 36 95.9968 37.1874 95.9968 38.5588V93.3941H96Z" fill="#F08705"/>
<path d="M96.0002 93.3941C96.0002 94.8397 94.8118 95.9529 93.4393 95.9529H56.5319L44.5771 83.8204L52.0045 71.6878L74.0605 44.3089L95.9291 66.8283L96.0002 93.3941Z" fill="#DF6C0C"/>
<path d="M85.2693 69.5001H78.956L72.2714 58.1484C73.7569 57.8515 74.871 56.5157 74.871 54.9571V46.3869C74.871 44.5702 73.4243 43.1214 71.603 43.1214H60.4684C58.6503 43.1214 57.2004 44.567 57.2004 46.3869V54.9571C57.2004 56.5512 58.3145 57.8515 59.7612 58.1484L53.0766 69.5388H46.7666C44.9485 69.5388 43.4985 70.9844 43.4985 72.8043V81.3745C43.4985 83.1912 44.9453 84.64 46.7666 84.64H57.9043C59.7224 84.64 61.1724 83.1944 61.1724 81.3745V72.8043C61.1724 70.9876 59.7257 69.5388 57.9043 69.5388H56.829L63.4393 58.2613H68.5997L75.2456 69.5388H74.1315C72.3134 69.5388 70.8634 70.9844 70.8634 72.8043V81.3745C70.8634 83.1912 72.3102 84.64 74.1315 84.64H85.2693C87.0873 84.64 88.5373 83.1944 88.5373 81.3745V72.8043C88.5373 70.9844 87.0906 69.5001 85.2693 69.5001Z" fill="white"/>
</g>
<defs>
<clipPath id="clip0">
<rect width="60" height="60" fill="white" transform="translate(36 36)"/>
</clipPath>
</defs>
</svg>
