<svg width="196" height="32" viewBox="0 0 196 32" fill="none" xmlns="http://www.w3.org/2000/svg">
<path d="M25.3333 9.14285C25.3333 10.5856 24.1394 11.7551 22.6667 11.7551C21.1939 11.7551 20 10.5856 20 9.14285C20 7.70015 21.1939 6.53061 22.6667 6.53061C24.1394 6.53061 25.3333 7.70015 25.3333 9.14285Z" fill="white"/>
<path fill-rule="evenodd" clip-rule="evenodd" d="M9.33341 29.3878C5.65152 29.3878 2.66675 26.4639 2.66675 22.8571H5.33341C5.33341 25.0212 7.12428 26.7755 9.33341 26.7755V29.3878Z" fill="white"/>
<path fill-rule="evenodd" clip-rule="evenodd" d="M16.2879 2.43713C20.5188 -0.00224935 25.6534 -1.40265 29.931 2.1321C29.9621 2.15775 29.9919 2.1848 30.0205 2.21316C31.576 3.75557 32.1033 5.75818 31.9837 7.84722C31.8659 9.90525 31.1229 12.1182 30.059 14.2879C28.0104 18.4658 24.6164 22.7949 21.3585 26.1059V30.6687C21.3585 31.2072 21.0332 31.6926 20.5344 31.8986C20.0356 32.1047 19.4614 31.9908 19.0796 31.6101L0.391023 12.9728C0.00924294 12.5921 -0.104965 12.0195 0.101653 11.522C0.308271 11.0246 0.795026 10.7002 1.33494 10.7002L6.12171 10.7002C8.51164 8.32471 12.2358 4.77343 16.2879 2.43713ZM5.8933 14.6947L17.418 26.1877C17.9593 25.703 18.5165 25.1765 19.0809 24.6151C22.32 21.3934 25.6986 17.1195 27.6606 13.1183C28.6432 11.1144 29.2286 9.26282 29.3182 7.69551C29.4048 6.18344 29.032 5.01306 28.1794 4.14273C25.2716 1.78058 21.5912 2.45487 17.6242 4.7421C13.6855 7.01303 9.99463 10.5976 7.61957 12.9717C7.18694 13.4042 6.48217 14.1075 5.8933 14.6947Z" fill="white"/>
<path d="M49.48 9C51.48 9 53.0067 9.36667 54.06 10.1C55.1267 10.8333 55.66 11.9533 55.66 13.46C55.66 15.34 54.7333 16.6133 52.88 17.28C53.1333 17.5867 53.42 17.96 53.74 18.4C54.06 18.84 54.3867 19.32 54.72 19.84C55.0533 20.3467 55.3733 20.8733 55.68 21.42C55.9867 21.9533 56.26 22.48 56.5 23H53.68C53.4267 22.52 53.1533 22.04 52.86 21.56C52.5667 21.0667 52.2667 20.5933 51.96 20.14C51.6667 19.6733 51.3733 19.24 51.08 18.84C50.7867 18.4267 50.5133 18.06 50.26 17.74C50.0733 17.7533 49.9133 17.76 49.78 17.76C49.6467 17.76 49.52 17.76 49.4 17.76H48.18V23H45.66V9.34C46.2733 9.20667 46.9267 9.12 47.62 9.08C48.3133 9.02667 48.9333 9 49.48 9ZM49.66 11.18C49.1267 11.18 48.6333 11.2 48.18 11.24V15.72H49.28C49.8933 15.72 50.4333 15.6867 50.9 15.62C51.3667 15.5533 51.7533 15.4333 52.06 15.26C52.38 15.0867 52.62 14.8533 52.78 14.56C52.94 14.2667 53.02 13.8933 53.02 13.44C53.02 13.0133 52.94 12.6533 52.78 12.36C52.62 12.0667 52.3867 11.8333 52.08 11.66C51.7867 11.4867 51.4333 11.3667 51.02 11.3C50.6067 11.22 50.1533 11.18 49.66 11.18ZM67.793 17.76C67.793 18.5867 67.673 19.34 67.433 20.02C67.193 20.7 66.853 21.28 66.413 21.76C65.973 22.24 65.4396 22.6133 64.813 22.88C64.1996 23.1467 63.5196 23.28 62.773 23.28C62.0263 23.28 61.3463 23.1467 60.733 22.88C60.1196 22.6133 59.593 22.24 59.153 21.76C58.713 21.28 58.3663 20.7 58.113 20.02C57.873 19.34 57.753 18.5867 57.753 17.76C57.753 16.9333 57.873 16.1867 58.113 15.52C58.3663 14.84 58.713 14.26 59.153 13.78C59.6063 13.3 60.1396 12.9333 60.753 12.68C61.3663 12.4133 62.0396 12.28 62.773 12.28C63.5063 12.28 64.1796 12.4133 64.793 12.68C65.4196 12.9333 65.953 13.3 66.393 13.78C66.833 14.26 67.173 14.84 67.413 15.52C67.6663 16.1867 67.793 16.9333 67.793 17.76ZM65.313 17.76C65.313 16.72 65.0863 15.9 64.633 15.3C64.193 14.6867 63.573 14.38 62.773 14.38C61.973 14.38 61.3463 14.6867 60.893 15.3C60.453 15.9 60.233 16.72 60.233 17.76C60.233 18.8133 60.453 19.6467 60.893 20.26C61.3463 20.8733 61.973 21.18 62.773 21.18C63.573 21.18 64.193 20.8733 64.633 20.26C65.0863 19.6467 65.313 18.8133 65.313 17.76ZM69.7061 17.78C69.7061 17.0067 69.8261 16.2867 70.0661 15.62C70.3061 14.94 70.6461 14.3533 71.0861 13.86C71.5394 13.3667 72.0861 12.98 72.7261 12.7C73.3661 12.42 74.0861 12.28 74.8861 12.28C75.8728 12.28 76.8061 12.46 77.6861 12.82L77.1661 14.8C76.8861 14.68 76.5661 14.58 76.2061 14.5C75.8594 14.42 75.4861 14.38 75.0861 14.38C74.1394 14.38 73.4194 14.68 72.9261 15.28C72.4328 15.8667 72.1861 16.7 72.1861 17.78C72.1861 18.82 72.4194 19.6467 72.8861 20.26C73.3528 20.86 74.1394 21.16 75.2461 21.16C75.6594 21.16 76.0661 21.12 76.4661 21.04C76.8661 20.96 77.2128 20.86 77.5061 20.74L77.8461 22.74C77.5794 22.8733 77.1728 22.9933 76.6261 23.1C76.0928 23.2067 75.5394 23.26 74.9661 23.26C74.0728 23.26 73.2928 23.1267 72.6261 22.86C71.9728 22.58 71.4261 22.2 70.9861 21.72C70.5594 21.2267 70.2394 20.6467 70.0261 19.98C69.8128 19.3 69.7061 18.5667 69.7061 17.78ZM82.1397 16.62C82.4464 16.3 82.773 15.96 83.1197 15.6C83.4664 15.2267 83.8064 14.86 84.1397 14.5C84.473 14.1267 84.7864 13.7733 85.0797 13.44C85.3864 13.0933 85.6464 12.7933 85.8597 12.54H88.7197C88.053 13.2867 87.3464 14.06 86.5997 14.86C85.8664 15.66 85.1264 16.44 84.3797 17.2C84.7797 17.5333 85.1997 17.94 85.6397 18.42C86.0797 18.8867 86.5064 19.3867 86.9197 19.92C87.333 20.4533 87.7197 20.9867 88.0797 21.52C88.4397 22.0533 88.7397 22.5467 88.9797 23H86.1797C85.9397 22.5867 85.6597 22.1533 85.3397 21.7C85.033 21.2467 84.6997 20.8067 84.3397 20.38C83.9797 19.9533 83.613 19.5533 83.2397 19.18C82.8664 18.7933 82.4997 18.4667 82.1397 18.2V23H79.7197V7.88L82.1397 7.48V16.62ZM89.6866 17.82C89.6866 16.9 89.8199 16.0933 90.0866 15.4C90.3666 14.7067 90.7332 14.1333 91.1866 13.68C91.6399 13.2133 92.1599 12.8667 92.7466 12.64C93.3332 12.4 93.9332 12.28 94.5466 12.28C95.9866 12.28 97.1066 12.7267 97.9066 13.62C98.7199 14.5133 99.1266 15.8467 99.1266 17.62C99.1266 17.7533 99.1199 17.9067 99.1066 18.08C99.1066 18.24 99.0999 18.3867 99.0866 18.52H92.1866C92.2532 19.36 92.5466 20.0133 93.0666 20.48C93.5999 20.9333 94.3666 21.16 95.3666 21.16C95.9532 21.16 96.4866 21.1067 96.9666 21C97.4599 20.8933 97.8466 20.78 98.1266 20.66L98.4466 22.64C98.3132 22.7067 98.1266 22.78 97.8866 22.86C97.6599 22.9267 97.3932 22.9867 97.0866 23.04C96.7932 23.1067 96.4732 23.16 96.1266 23.2C95.7799 23.24 95.4266 23.26 95.0666 23.26C94.1466 23.26 93.3466 23.1267 92.6666 22.86C91.9866 22.58 91.4266 22.2 90.9866 21.72C90.5466 21.2267 90.2199 20.6533 90.0066 20C89.7932 19.3333 89.6866 18.6067 89.6866 17.82ZM96.7066 16.74C96.7066 16.4067 96.6599 16.0933 96.5666 15.8C96.4732 15.4933 96.3332 15.2333 96.1466 15.02C95.9732 14.7933 95.7532 14.62 95.4866 14.5C95.2332 14.3667 94.9266 14.3 94.5666 14.3C94.1932 14.3 93.8666 14.3733 93.5866 14.52C93.3066 14.6533 93.0666 14.8333 92.8666 15.06C92.6799 15.2867 92.5332 15.5467 92.4266 15.84C92.3199 16.1333 92.2466 16.4333 92.2066 16.74H96.7066ZM101.572 9.78L103.992 9.38V12.54H107.712V14.56H103.992V18.82C103.992 19.66 104.126 20.26 104.392 20.62C104.659 20.98 105.112 21.16 105.752 21.16C106.192 21.16 106.579 21.1133 106.912 21.02C107.259 20.9267 107.532 20.84 107.732 20.76L108.132 22.68C107.852 22.8 107.486 22.92 107.032 23.04C106.579 23.1733 106.046 23.24 105.432 23.24C104.686 23.24 104.059 23.14 103.552 22.94C103.059 22.74 102.666 22.4533 102.372 22.08C102.079 21.6933 101.872 21.2333 101.752 20.7C101.632 20.1533 101.572 19.5333 101.572 18.84V9.78ZM108.512 24.68H118.512V26.7H108.512V24.68ZM123.692 23.2C122.972 23.1867 122.372 23.1067 121.892 22.96C121.425 22.8133 121.052 22.6067 120.772 22.34C120.492 22.06 120.292 21.72 120.172 21.32C120.065 20.9067 120.012 20.44 120.012 19.92V7.88L122.432 7.48V19.46C122.432 19.7533 122.452 20 122.492 20.2C122.545 20.4 122.632 20.5733 122.752 20.72C122.872 20.8533 123.032 20.96 123.232 21.04C123.445 21.1067 123.712 21.16 124.032 21.2L123.692 23.2ZM125.409 17.82C125.409 16.9 125.543 16.0933 125.809 15.4C126.089 14.7067 126.456 14.1333 126.909 13.68C127.363 13.2133 127.883 12.8667 128.469 12.64C129.056 12.4 129.656 12.28 130.269 12.28C131.709 12.28 132.829 12.7267 133.629 13.62C134.443 14.5133 134.849 15.8467 134.849 17.62C134.849 17.7533 134.843 17.9067 134.829 18.08C134.829 18.24 134.823 18.3867 134.809 18.52H127.909C127.976 19.36 128.269 20.0133 128.789 20.48C129.323 20.9333 130.089 21.16 131.089 21.16C131.676 21.16 132.209 21.1067 132.689 21C133.183 20.8933 133.569 20.78 133.849 20.66L134.169 22.64C134.036 22.7067 133.849 22.78 133.609 22.86C133.383 22.9267 133.116 22.9867 132.809 23.04C132.516 23.1067 132.196 23.16 131.849 23.2C131.503 23.24 131.149 23.26 130.789 23.26C129.869 23.26 129.069 23.1267 128.389 22.86C127.709 22.58 127.149 22.2 126.709 21.72C126.269 21.2267 125.943 20.6533 125.729 20C125.516 19.3333 125.409 18.6067 125.409 17.82ZM132.429 16.74C132.429 16.4067 132.383 16.0933 132.289 15.8C132.196 15.4933 132.056 15.2333 131.869 15.02C131.696 14.7933 131.476 14.62 131.209 14.5C130.956 14.3667 130.649 14.3 130.289 14.3C129.916 14.3 129.589 14.3733 129.309 14.52C129.029 14.6533 128.789 14.8333 128.589 15.06C128.403 15.2867 128.256 15.5467 128.149 15.84C128.043 16.1333 127.969 16.4333 127.929 16.74H132.429ZM141.095 21.3C141.842 21.3 142.408 21.26 142.795 21.18V18.5C142.662 18.46 142.468 18.42 142.215 18.38C141.962 18.34 141.682 18.32 141.375 18.32C141.108 18.32 140.835 18.34 140.555 18.38C140.288 18.42 140.042 18.4933 139.815 18.6C139.602 18.7067 139.428 18.86 139.295 19.06C139.162 19.2467 139.095 19.4867 139.095 19.78C139.095 20.3533 139.275 20.7533 139.635 20.98C139.995 21.1933 140.482 21.3 141.095 21.3ZM140.895 12.28C141.695 12.28 142.368 12.38 142.915 12.58C143.462 12.78 143.895 13.06 144.215 13.42C144.548 13.78 144.782 14.22 144.915 14.74C145.062 15.2467 145.135 15.8067 145.135 16.42V22.76C144.762 22.84 144.195 22.9333 143.435 23.04C142.688 23.16 141.842 23.22 140.895 23.22C140.268 23.22 139.695 23.16 139.175 23.04C138.655 22.92 138.208 22.7267 137.835 22.46C137.475 22.1933 137.188 21.8467 136.975 21.42C136.775 20.9933 136.675 20.4667 136.675 19.84C136.675 19.24 136.788 18.7333 137.015 18.32C137.255 17.9067 137.575 17.5733 137.975 17.32C138.375 17.0533 138.835 16.8667 139.355 16.76C139.888 16.64 140.442 16.58 141.015 16.58C141.282 16.58 141.562 16.6 141.855 16.64C142.148 16.6667 142.462 16.72 142.795 16.8V16.4C142.795 16.12 142.762 15.8533 142.695 15.6C142.628 15.3467 142.508 15.1267 142.335 14.94C142.175 14.74 141.955 14.5867 141.675 14.48C141.408 14.3733 141.068 14.32 140.655 14.32C140.095 14.32 139.582 14.36 139.115 14.44C138.648 14.52 138.268 14.6133 137.975 14.72L137.675 12.76C137.982 12.6533 138.428 12.5467 139.015 12.44C139.602 12.3333 140.228 12.28 140.895 12.28ZM154.059 14.72C153.859 14.6533 153.579 14.5867 153.219 14.52C152.872 14.44 152.465 14.4 151.999 14.4C151.732 14.4 151.445 14.4267 151.139 14.48C150.845 14.5333 150.639 14.58 150.519 14.62V23H148.099V13.04C148.565 12.8667 149.145 12.7067 149.839 12.56C150.545 12.4 151.325 12.32 152.179 12.32C152.339 12.32 152.525 12.3333 152.739 12.36C152.952 12.3733 153.165 12.4 153.379 12.44C153.592 12.4667 153.799 12.5067 153.999 12.56C154.199 12.6 154.359 12.64 154.479 12.68L154.059 14.72ZM156.165 12.88C156.632 12.7467 157.238 12.62 157.985 12.5C158.732 12.38 159.558 12.32 160.465 12.32C161.318 12.32 162.032 12.44 162.605 12.68C163.178 12.9067 163.632 13.2333 163.965 13.66C164.312 14.0733 164.552 14.58 164.685 15.18C164.832 15.7667 164.905 16.4133 164.905 17.12V23H162.485V17.5C162.485 16.94 162.445 16.4667 162.365 16.08C162.298 15.68 162.178 15.36 162.005 15.12C161.845 14.8667 161.618 14.6867 161.325 14.58C161.045 14.46 160.698 14.4 160.285 14.4C159.978 14.4 159.658 14.42 159.325 14.46C158.992 14.5 158.745 14.5333 158.585 14.56V23H156.165V12.88ZM170.304 23H167.884V12.54H170.304V23ZM170.564 9.48C170.564 9.93333 170.418 10.2933 170.124 10.56C169.831 10.8267 169.484 10.96 169.084 10.96C168.671 10.96 168.318 10.8267 168.024 10.56C167.731 10.2933 167.584 9.93333 167.584 9.48C167.584 9.01333 167.731 8.64667 168.024 8.38C168.318 8.11333 168.671 7.98 169.084 7.98C169.484 7.98 169.831 8.11333 170.124 8.38C170.418 8.64667 170.564 9.01333 170.564 9.48ZM173.392 12.88C173.858 12.7467 174.465 12.62 175.212 12.5C175.958 12.38 176.785 12.32 177.692 12.32C178.545 12.32 179.258 12.44 179.832 12.68C180.405 12.9067 180.858 13.2333 181.192 13.66C181.538 14.0733 181.778 14.58 181.912 15.18C182.058 15.7667 182.132 16.4133 182.132 17.12V23H179.712V17.5C179.712 16.94 179.672 16.4667 179.592 16.08C179.525 15.68 179.405 15.36 179.232 15.12C179.072 14.8667 178.845 14.6867 178.552 14.58C178.272 14.46 177.925 14.4 177.512 14.4C177.205 14.4 176.885 14.42 176.552 14.46C176.218 14.5 175.972 14.5333 175.812 14.56V23H173.392V12.88ZM186.991 17.5C186.991 18.5267 187.211 19.28 187.651 19.76C188.104 20.2267 188.684 20.46 189.391 20.46C189.777 20.46 190.137 20.4067 190.471 20.3C190.817 20.1933 191.097 20.0667 191.311 19.92V14.5C191.137 14.46 190.924 14.4267 190.671 14.4C190.417 14.36 190.097 14.34 189.711 14.34C188.831 14.34 188.157 14.6333 187.691 15.22C187.224 15.7933 186.991 16.5533 186.991 17.5ZM193.731 21.94C193.731 23.6067 193.304 24.8267 192.451 25.6C191.611 26.3733 190.317 26.76 188.571 26.76C187.931 26.76 187.304 26.7067 186.691 26.6C186.091 26.4933 185.544 26.3533 185.051 26.18L185.491 24.12C185.904 24.2933 186.371 24.4333 186.891 24.54C187.424 24.6467 187.997 24.7 188.611 24.7C189.584 24.7 190.277 24.5 190.691 24.1C191.104 23.7 191.311 23.1067 191.311 22.32V21.92C191.071 22.04 190.751 22.16 190.351 22.28C189.964 22.4 189.517 22.46 189.011 22.46C188.344 22.46 187.731 22.3533 187.171 22.14C186.624 21.9267 186.151 21.6133 185.751 21.2C185.364 20.7867 185.057 20.2733 184.831 19.66C184.617 19.0333 184.511 18.3133 184.511 17.5C184.511 16.74 184.624 16.04 184.851 15.4C185.091 14.76 185.431 14.2133 185.871 13.76C186.324 13.3067 186.871 12.9533 187.511 12.7C188.151 12.4467 188.877 12.32 189.691 12.32C190.477 12.32 191.224 12.38 191.931 12.5C192.637 12.62 193.237 12.7467 193.731 12.88V21.94Z" fill="white"/>
</svg>
