<svg width="113" height="115" viewBox="0 0 113 115" fill="none" xmlns="http://www.w3.org/2000/svg">
<rect width="113" height="115" rx="8" fill="#C93939"/>
<rect width="113" height="105" rx="8" fill="#FC4848"/>
<path d="M19.752 91.688C19.4853 92.2853 19.208 92.808 18.92 93.256C18.6427 93.6933 18.3333 94.056 17.992 94.344C17.6613 94.632 17.288 94.8453 16.872 94.984C16.4667 95.1227 16.008 95.192 15.496 95.192C15.1867 95.192 14.8613 95.16 14.52 95.096C14.1893 95.032 13.9173 94.952 13.704 94.856L14.072 93.192C14.2747 93.2773 14.488 93.3467 14.712 93.4C14.936 93.4427 15.1653 93.464 15.4 93.464C15.8907 93.464 16.296 93.352 16.616 93.128C16.9467 92.904 17.2507 92.536 17.528 92.024C17.08 91.2987 16.648 90.568 16.232 89.832C15.8267 89.096 15.448 88.3813 15.096 87.688C14.744 86.984 14.4187 86.312 14.12 85.672C13.832 85.032 13.5707 84.4453 13.336 83.912H15.592C15.7627 84.3493 15.9547 84.8187 16.168 85.32C16.392 85.8213 16.6267 86.3387 16.872 86.872C17.128 87.4053 17.3947 87.9493 17.672 88.504C17.9493 89.0587 18.2267 89.6133 18.504 90.168C18.888 89.2187 19.256 88.2053 19.608 87.128C19.96 86.0507 20.2907 84.9787 20.6 83.912H22.776C22.52 84.7013 22.264 85.448 22.008 86.152C21.752 86.8453 21.496 87.512 21.24 88.152C20.9947 88.7813 20.744 89.3893 20.488 89.976C20.2427 90.552 19.9973 91.1227 19.752 91.688ZM27.3234 83.8C28.934 83.8 30.166 84.0933 31.0194 84.68C31.8834 85.2667 32.3154 86.184 32.3154 87.432C32.3154 88.0827 32.198 88.6427 31.9634 89.112C31.7394 89.5707 31.4087 89.9493 30.9714 90.248C30.534 90.536 30.0007 90.7493 29.3714 90.888C28.742 91.0267 28.022 91.096 27.2114 91.096H26.2034V95H24.1874V84.072C24.6567 83.9653 25.174 83.896 25.7394 83.864C26.3154 83.8213 26.8434 83.8 27.3234 83.8ZM27.4674 85.544C26.9554 85.544 26.534 85.56 26.2034 85.592V89.368H27.1794C28.15 89.368 28.8967 89.2347 29.4194 88.968C29.942 88.6907 30.2034 88.1733 30.2034 87.416C30.2034 87.0533 30.134 86.7493 29.9954 86.504C29.8567 86.2587 29.6647 86.0667 29.4194 85.928C29.174 85.7893 28.8807 85.6933 28.5394 85.64C28.2087 85.576 27.8514 85.544 27.4674 85.544ZM35.8041 89.448C35.8041 90.056 35.8788 90.6107 36.0281 91.112C36.1775 91.6027 36.3908 92.024 36.6681 92.376C36.9561 92.7173 37.3028 92.984 37.7081 93.176C38.1135 93.368 38.5721 93.464 39.0841 93.464C39.5855 93.464 40.0388 93.368 40.4441 93.176C40.8495 92.984 41.1908 92.7173 41.4681 92.376C41.7561 92.024 41.9748 91.6027 42.1241 91.112C42.2735 90.6107 42.3481 90.056 42.3481 89.448C42.3481 88.84 42.2735 88.2907 42.1241 87.8C41.9748 87.2987 41.7561 86.8773 41.4681 86.536C41.1908 86.184 40.8495 85.912 40.4441 85.72C40.0388 85.528 39.5855 85.432 39.0841 85.432C38.5721 85.432 38.1135 85.528 37.7081 85.72C37.3028 85.912 36.9561 86.184 36.6681 86.536C36.3908 86.888 36.1775 87.3093 36.0281 87.8C35.8788 88.2907 35.8041 88.84 35.8041 89.448ZM44.4601 89.448C44.4601 90.3973 44.3161 91.2347 44.0281 91.96C43.7508 92.6853 43.3668 93.2933 42.8761 93.784C42.3961 94.264 41.8308 94.6267 41.1801 94.872C40.5295 95.1173 39.8361 95.24 39.1001 95.24C38.3641 95.24 37.6655 95.1173 37.0041 94.872C36.3535 94.6267 35.7828 94.264 35.2921 93.784C34.8121 93.2933 34.4281 92.6853 34.1401 91.96C33.8521 91.2347 33.7081 90.3973 33.7081 89.448C33.7081 88.4987 33.8521 87.6667 34.1401 86.952C34.4281 86.2267 34.8175 85.6187 35.3081 85.128C35.8095 84.6373 36.3855 84.2693 37.0361 84.024C37.6868 83.7787 38.3748 83.656 39.1001 83.656C39.8255 83.656 40.5135 83.7787 41.1641 84.024C41.8148 84.2693 42.3801 84.6373 42.8601 85.128C43.3508 85.6187 43.7401 86.2267 44.0281 86.952C44.3161 87.6667 44.4601 88.4987 44.4601 89.448ZM50.0158 95.128C49.4291 95.128 48.8371 95.1067 48.2398 95.064C47.6424 95.032 47.1198 94.9573 46.6718 94.84V84.072C46.9064 84.0293 47.1571 83.992 47.4238 83.96C47.6904 83.9173 47.9624 83.8853 48.2398 83.864C48.5171 83.8427 48.7891 83.8267 49.0558 83.816C49.3331 83.8053 49.5944 83.8 49.8398 83.8C50.5118 83.8 51.1358 83.8533 51.7118 83.96C52.2878 84.056 52.7838 84.2213 53.1998 84.456C53.6264 84.6907 53.9571 85 54.1918 85.384C54.4264 85.768 54.5438 86.2427 54.5438 86.808C54.5438 87.3307 54.4158 87.7787 54.1597 88.152C53.9144 88.5253 53.5678 88.824 53.1198 89.048C53.7918 89.272 54.2878 89.6027 54.6078 90.04C54.9278 90.4773 55.0878 91.032 55.0878 91.704C55.0878 92.8453 54.6718 93.704 53.8398 94.28C53.0078 94.8453 51.7331 95.128 50.0158 95.128ZM48.6558 90.008V93.384C48.8798 93.4053 49.1198 93.4213 49.3758 93.432C49.6318 93.4427 49.8664 93.448 50.0798 93.448C50.4958 93.448 50.8798 93.4213 51.2318 93.368C51.5944 93.3147 51.9038 93.224 52.1598 93.096C52.4264 92.9573 52.6344 92.776 52.7838 92.552C52.9438 92.328 53.0238 92.04 53.0238 91.688C53.0238 91.0587 52.7944 90.6213 52.3358 90.376C51.8771 90.1307 51.2424 90.008 50.4318 90.008H48.6558ZM48.6558 88.424H50.0798C50.8478 88.424 51.4504 88.3173 51.8878 88.104C52.3251 87.88 52.5438 87.4853 52.5438 86.92C52.5438 86.3867 52.3144 86.008 51.8558 85.784C51.4078 85.56 50.8211 85.448 50.0958 85.448C49.7864 85.448 49.5091 85.4533 49.2638 85.464C49.0291 85.4747 48.8264 85.4907 48.6558 85.512V88.424ZM57.1874 95V83.912H64.3074V85.624H59.2034V88.36H63.7474V90.04H59.2034V93.288H64.6914V95H57.1874ZM73.3944 83.912H75.4104V95H73.3944V90.088H68.5784V95H66.5624V83.912H68.5784V88.344H73.3944V83.912ZM86.2704 91.512C86.2704 92.696 85.8224 93.5973 84.9264 94.216C84.041 94.824 82.793 95.128 81.1824 95.128C80.7344 95.128 80.2277 95.1013 79.6624 95.048C79.1077 94.9947 78.5744 94.9093 78.0624 94.792V83.912H80.0784V87.896C80.2597 87.8747 80.4304 87.864 80.5904 87.864C80.7504 87.864 80.9157 87.864 81.0864 87.864C84.5424 87.864 86.2704 89.08 86.2704 91.512ZM80.9424 89.592C80.8144 89.592 80.6757 89.592 80.5264 89.592C80.377 89.592 80.2277 89.6027 80.0784 89.624V93.368C80.2277 93.3787 80.3984 93.3893 80.5904 93.4C80.793 93.4 81.033 93.4 81.3104 93.4C81.6837 93.4 82.041 93.3733 82.3824 93.32C82.7344 93.256 83.0384 93.1547 83.2944 93.016C83.561 92.8667 83.7744 92.6747 83.9344 92.44C84.0944 92.1947 84.1744 91.8853 84.1744 91.512C84.1744 91.1387 84.0944 90.8293 83.9344 90.584C83.785 90.3387 83.5664 90.1413 83.2784 89.992C83.001 89.8427 82.665 89.7413 82.2704 89.688C81.8757 89.624 81.433 89.592 80.9424 89.592ZM92.0181 86.216C92.6368 85.9707 93.2555 85.656 93.8741 85.272C94.5035 84.888 95.0581 84.4347 95.5381 83.912H96.8981V95H94.9621V86.504C94.6741 86.728 94.3115 86.9467 93.8741 87.16C93.4368 87.3733 93.0155 87.5493 92.6101 87.688L92.0181 86.216Z" fill="white"/>
<g clip-path="url(#clip0)">
<path d="M70.5112 13.4609H42.4894C40.7677 13.4609 39.3721 14.8566 39.3721 16.5783V68.4199C39.3721 70.1415 40.7677 71.5372 42.4894 71.5372H70.5112C72.2328 71.5372 73.6285 70.1415 73.6285 68.4199V16.5783C73.6285 14.8566 72.2328 13.4609 70.5112 13.4609Z" fill="#9297AB"/>
<path d="M73.6264 16.581V68.418C73.6269 68.8274 73.5468 69.2329 73.3906 69.6114C73.2344 69.9898 73.0052 70.3337 72.7161 70.6235C72.4269 70.9134 72.0835 71.1434 71.7055 71.3005C71.3274 71.4576 70.9221 71.5386 70.5127 71.5391H42.491C41.8316 71.54 41.1889 71.3316 40.6556 70.9438C40.1222 70.5561 39.7258 70.009 39.5234 69.3814C39.906 69.5385 40.3157 69.6188 40.7292 69.6179H68.7492C69.5755 69.6179 70.3679 69.2896 70.9522 68.7054C71.5364 68.1211 71.8647 67.3287 71.8647 66.5024V14.6594C71.8656 14.3321 71.8137 14.0068 71.7112 13.696C72.2789 13.935 72.7636 14.3362 73.1043 14.8494C73.445 15.3626 73.6266 15.965 73.6264 16.581Z" fill="#707583"/>
<path d="M70.5125 72H42.4875C41.5388 71.9989 40.6294 71.6215 39.9586 70.9507C39.2879 70.2799 38.9106 69.3704 38.9097 68.4217V16.5783C38.9106 15.6296 39.2879 14.7201 39.9586 14.0493C40.6294 13.3785 41.5388 13.0011 42.4875 13H70.5125C71.4611 13.0011 72.3706 13.3785 73.0413 14.0493C73.712 14.7201 74.0893 15.6296 74.0903 16.5783V68.4199C74.0898 69.3689 73.7127 70.2788 73.042 70.9501C72.3712 71.6213 71.4614 71.9989 70.5125 72ZM42.4875 13.9219C41.7833 13.9227 41.1081 14.2029 40.6102 14.7009C40.1123 15.1989 39.8323 15.874 39.8315 16.5783V68.4199C39.8318 69.1244 40.1116 69.8001 40.6096 70.2985C41.1075 70.7969 41.7829 71.0773 42.4875 71.0781H70.5125C71.2167 71.0773 71.8918 70.7971 72.3897 70.2991C72.8876 69.8011 73.1677 69.126 73.1684 68.4217V16.5783C73.1677 15.874 72.8876 15.1989 72.3897 14.7009C71.8918 14.2029 71.2167 13.9227 70.5125 13.9219H42.4875Z" fill="#2F3A5A"/>
<path d="M42.6084 21.0484H70.3914V63.9497H42.6084V21.0484Z" fill="#81DAFC"/>
<path d="M70.3928 21.0498V63.9488H42.6094V61.4422H67.8033V21.0498H70.3928Z" fill="#5FC4F8"/>
<path d="M70.3909 64.4107H42.6084C42.4862 64.4107 42.3689 64.3621 42.2825 64.2757C42.196 64.1892 42.1475 64.072 42.1475 63.9497V21.0484C42.1475 20.9262 42.196 20.8089 42.2825 20.7225C42.3689 20.6361 42.4862 20.5875 42.6084 20.5875H70.3909C70.5132 20.5875 70.6304 20.6361 70.7169 20.7225C70.8033 20.8089 70.8519 20.9262 70.8519 21.0484V63.9497C70.8519 64.072 70.8033 64.1892 70.7169 64.2757C70.6304 64.3621 70.5132 64.4107 70.3909 64.4107ZM43.0693 63.4888H69.93V21.5094H43.0693V63.4888Z" fill="#2F3A5A"/>
<path d="M59.4961 17.6914H53.5039C53.3817 17.6914 53.2644 17.6429 53.178 17.5564C53.0915 17.47 53.043 17.3527 53.043 17.2305C53.043 17.1082 53.0915 16.991 53.178 16.9046C53.2644 16.8181 53.3817 16.7695 53.5039 16.7695H59.4961C59.6183 16.7695 59.7356 16.8181 59.822 16.9046C59.9085 16.991 59.957 17.1082 59.957 17.2305C59.957 17.3527 59.9085 17.47 59.822 17.5564C59.7356 17.6429 59.6183 17.6914 59.4961 17.6914Z" fill="#2F3A5A"/>
<path d="M54.7388 66.6356H58.2613V68.9232H54.7388V66.6356Z" fill="#9297AB"/>
<path d="M58.2613 69.3842H54.7388C54.6165 69.3842 54.4993 69.3356 54.4128 69.2492C54.3264 69.1627 54.2778 69.0455 54.2778 68.9232V66.6356C54.2778 66.5134 54.3264 66.3961 54.4128 66.3097C54.4993 66.2232 54.6165 66.1747 54.7388 66.1747H58.2613C58.3835 66.1747 58.5007 66.2232 58.5872 66.3097C58.6736 66.3961 58.7222 66.5134 58.7222 66.6356V68.9232C58.7222 69.0455 58.6736 69.1627 58.5872 69.2492C58.5007 69.3356 58.3835 69.3842 58.2613 69.3842ZM55.1997 68.4623H57.8003V67.0965H55.1997V68.4623Z" fill="#2F3A5A"/>
<path d="M64.7766 36.1331C61.4827 31.7413 56.7535 35.7104 56.5 35.7952C56.2465 35.7109 51.5172 31.7413 48.2234 36.1331C44.9295 40.5249 50.3345 47.7035 56.5 51.1656C62.6655 47.7035 68.0695 40.5244 64.7766 36.1331Z" fill="#EF5361"/>
<path d="M56.5001 51.1656C56.1439 50.9653 55.7906 50.7528 55.4399 50.5282C61.4183 46.9789 66.4914 40.0363 63.2759 35.7496C62.7701 35.0366 62.0933 34.4621 61.3077 34.0787C62.0029 34.1386 62.6757 34.3543 63.2762 34.7098C63.8766 35.0653 64.3893 35.5514 64.7762 36.1322C68.0696 40.524 62.6656 47.7035 56.5001 51.1656Z" fill="#DA2A47"/>
<path d="M56.5001 51.6948L56.2742 51.568C51.5634 48.9222 47.7192 44.4461 46.9259 40.6825C46.7137 39.8595 46.6869 38.9995 46.8476 38.1648C47.0082 37.3302 47.3522 36.5416 47.8547 35.856C49.0532 34.2594 51.7667 32.0621 56.5001 35.2472C61.2343 32.0607 63.9479 34.2584 65.1454 35.856C65.6479 36.5416 65.9919 37.3302 66.1526 38.1648C66.3132 38.9995 66.2864 39.8595 66.0742 40.6825C65.2804 44.4461 61.4362 48.9222 56.7259 51.568L56.5001 51.6948ZM52.0036 34.5258C50.6743 34.5258 49.5335 35.1536 48.5927 36.4087C48.1714 36.9905 47.8844 37.6584 47.7523 38.3644C47.6202 39.0705 47.6464 39.797 47.8289 40.4917C48.5586 43.9561 52.1078 48.0972 56.5001 50.6355C60.8923 48.0972 64.4415 43.9561 65.1717 40.4926C65.3542 39.7979 65.3804 39.0714 65.2483 38.3654C65.1162 37.6593 64.8292 36.9914 64.4079 36.4096C62.6222 34.0289 60.1212 33.9044 56.9734 36.0409C56.8735 36.1197 56.7632 36.1843 56.6457 36.2331L56.5001 36.281L56.3544 36.2326C56.2369 36.1839 56.1266 36.1192 56.0267 36.0404C54.5388 35.0307 53.1977 34.5258 52.0036 34.5258Z" fill="#2F3A5A"/>
</g>
<defs>
<clipPath id="clip0">
<rect width="59" height="59" fill="white" transform="translate(27 13)"/>
</clipPath>
</defs>
</svg>
