<svg width="303" height="241" viewBox="0 0 303 241" fill="none" xmlns="http://www.w3.org/2000/svg">
<g clip-path="url(#clip0)">
<path opacity="0.1" d="M177.699 40.7278C158.527 40.0609 140.264 33.8697 122.827 27.0945C105.391 20.3194 88.1207 12.8123 69.4076 9.22315C57.3716 6.91439 43.6056 6.58838 33.9099 13.0434C24.5756 19.2673 21.5599 29.9812 19.9395 39.9335C18.719 47.4199 18.0021 55.2976 21.3466 62.3068C23.6661 67.1733 27.7867 71.2633 30.6335 75.9401C40.5485 92.1577 33.5426 112.157 22.7982 127.992C17.7622 135.422 11.9116 142.515 8.02496 150.416C4.13837 158.317 2.33727 167.383 5.73804 175.451C9.11214 183.453 17.149 189.452 25.8523 193.675C43.5345 202.255 64.3627 204.709 84.6874 206.099C129.665 209.178 174.879 207.845 219.974 206.511C236.664 206.016 253.425 205.515 269.842 202.934C278.961 201.499 288.372 199.226 294.993 193.731C303.394 186.758 305.476 174.947 299.848 166.204C290.401 151.536 264.3 147.894 257.688 132.15C254.056 123.487 257.789 113.837 263.068 105.8C274.396 88.5626 293.381 73.4387 294.382 53.7357C295.07 40.2002 285.94 26.65 271.827 20.2453C257.036 13.5087 236.519 14.3623 225.612 25.4734C214.373 36.9223 194.626 41.3146 177.699 40.7278Z" fill="#6C63FF"/>
<path d="M128.995 204.647L27.6001 204.152L17.5251 180.51L53.1502 177.923L46.9412 152.002L117.403 142.864L49.9302 119.398L55.8904 117.981L164.386 135.689L158.411 176.141L149.871 198.372L128.995 204.647Z" fill="#6C63FF"/>
<path d="M29.1555 194.25C29.1555 194.25 35.3764 193.254 39.109 197.652C39.109 197.652 36.3718 199.81 30.4826 196.822L29.1555 194.25Z" fill="#6C63FF"/>
<path d="M28.5037 194.152C28.5037 194.152 24.5342 199.039 26.4893 204.481C26.4893 204.481 29.7242 203.186 30.0767 196.588L28.5037 194.152Z" fill="#6C63FF"/>
<path d="M24.937 186.117C24.937 186.117 27.4254 181.55 37.3788 187.943C37.3788 187.943 36.0517 191.014 31.6556 190.765C27.2595 190.516 26.0982 188.524 24.937 186.117Z" fill="#6C63FF"/>
<path d="M24.2941 185.788C24.2941 185.788 19.1308 185.196 18.6301 197.021C18.6301 197.021 21.9035 197.7 24.2289 193.959C26.5544 190.219 25.6005 188.121 24.2941 185.788Z" fill="#6C63FF"/>
<path d="M21.2874 176.355C21.2874 176.355 24.1904 168.305 34.7245 174.031C34.7245 174.031 32.3191 181.417 22.3656 179.093L21.2874 176.355Z" fill="#6C63FF"/>
<path d="M18.0525 164.322C18.0525 164.322 23.5269 156.189 33.2315 163.729C33.2315 163.729 29.8308 171.364 18.8819 167.215L18.0525 164.322Z" fill="#6C63FF"/>
<path d="M16.8914 152.87C16.8914 152.87 23.2782 145.398 32.888 152.87C32.888 152.87 26.833 159.426 16.8914 154.779V152.87Z" fill="#6C63FF"/>
<path d="M15.896 141.747C15.896 141.747 22.3657 133.947 31.5727 141.332C31.5727 141.332 24.2735 148.22 15.896 143.573V141.747Z" fill="#6C63FF"/>
<path d="M16.4766 131.872C16.4766 131.872 23.2899 121.831 31.9044 128.635C31.9044 128.635 24.6052 137.266 16.4766 133.78V131.872Z" fill="#6C63FF"/>
<path d="M18.0525 120.337C18.0525 120.337 25.2688 110.379 33.6462 118.013C33.6462 118.013 25.1029 126.644 18.0525 122.163V120.337Z" fill="#6C63FF"/>
<path d="M20.458 110.026C20.458 110.026 29.0014 100.667 36.4546 104.395C36.4546 104.395 27.5528 114.335 20.0847 112.51L20.458 110.026Z" fill="#6C63FF"/>
<path d="M23.444 100.252C23.444 100.252 33.3026 88.7878 39.0377 92.617C39.0377 92.617 31.7741 101.508 22.7449 102.397L23.444 100.252Z" fill="#6C63FF"/>
<path d="M27.7542 88.9153C27.7542 88.9153 36.3835 79.5558 42.6874 81.8794C42.6874 81.8794 35.3052 91.5886 26.5959 91.8376L27.7542 88.9153Z" fill="#6C63FF"/>
<path d="M31.6555 78.3111C31.6555 78.3111 41.1942 69.3487 45.3415 70.9254C45.3415 70.9254 38.457 80.8836 31.2407 80.3027L31.6555 78.3111Z" fill="#6C63FF"/>
<path d="M35.4709 68.5189C35.4709 68.5189 43.6825 57.8109 48.1646 58.6407C48.1646 58.6407 43.1849 68.1869 35.4709 69.6066V68.5189Z" fill="#6C63FF"/>
<path d="M39.6124 55.3153C39.6124 55.3153 46.8702 47.1087 50.7923 47.1265C50.7923 47.1265 45.0631 58.0924 39.3132 57.9916L39.6124 55.3153Z" fill="#6C63FF"/>
<path d="M42.0652 46.5248L49.0771 29.4299C49.0771 29.4299 49.4267 44.8829 41.1736 49.696L42.0652 46.5248Z" fill="#6C63FF"/>
<path d="M44.9121 27.6725C44.9121 27.6725 46.0734 13.3962 45.3269 12.2344C45.3269 12.2344 50.3392 24.1042 44.8647 33.9794L44.9121 27.6725Z" fill="#6C63FF"/>
<path d="M21.0148 176.165C21.0148 176.165 13.7452 171.657 9.03809 182.685C9.03809 182.685 15.5078 186.983 21.8709 178.978L21.0148 176.165Z" fill="#6C63FF"/>
<path d="M17.8186 163.863C17.8186 163.863 8.90192 159.793 4.5769 171.308C4.5769 171.308 11.4643 176.05 18.6302 166.773L17.8186 163.863Z" fill="#6C63FF"/>
<path d="M16.4764 153.555C16.4764 153.555 10.0896 146.083 0.479736 153.555C0.479736 153.555 6.53476 160.11 16.4764 155.463V153.555Z" fill="#6C63FF"/>
<path d="M15.6767 141.747C15.6767 141.747 9.20695 133.947 0 141.332C0 141.332 7.29921 148.22 15.6767 143.573V141.747Z" fill="#6C63FF"/>
<path d="M16.4766 132.156C16.4766 132.156 11.9383 120.909 2.07373 125.746C2.07373 125.746 7.40594 135.719 16.0737 134.024L16.4766 132.156Z" fill="#6C63FF"/>
<path d="M18.6241 120.281C18.6241 120.281 14.1125 108.838 4.10864 114.143C4.10864 114.143 10.2348 124.632 18.1798 122.047L18.6241 120.281Z" fill="#6C63FF"/>
<path d="M21.4206 110.082C21.4206 110.082 19.6432 97.5368 11.3486 96.4136C11.3486 96.4136 13.1083 109.644 20.3038 112.344L21.4206 110.082Z" fill="#6C63FF"/>
<path d="M23.6543 100.275C23.6543 100.275 22.9611 85.1602 16.1033 84.6327C16.1033 84.6327 16.3343 96.1054 22.8811 102.415L23.6543 100.275Z" fill="#6C63FF"/>
<path d="M28.4651 88.4916C28.4651 88.4916 26.421 75.9223 19.8743 74.3871C19.8743 74.3871 20.6859 86.5592 27.8163 91.5768L28.4651 88.4916Z" fill="#6C63FF"/>
<path d="M32.4317 78.4148C32.4317 78.4148 32.3636 65.3209 28.3644 63.3975C28.3644 63.3975 25.8849 75.2525 31.2734 80.0863L32.4317 78.4148Z" fill="#6C63FF"/>
<path d="M35.7763 68.3706C35.7763 68.3706 35.2164 54.8885 31.075 52.9888C31.075 52.9888 29.659 63.6583 35.1571 69.2538L35.7763 68.3706Z" fill="#6C63FF"/>
<path d="M40.1902 56.3912C40.1902 56.3912 40.1665 45.4253 37.2101 42.8528C37.2101 42.8528 34.2714 54.8648 38.6468 58.5962L40.1902 56.3912Z" fill="#6C63FF"/>
<path d="M41.7186 45.9855L38.8422 27.7347C38.8422 27.7347 34.9349 42.6898 41.8549 49.2812L41.7186 45.9855Z" fill="#6C63FF"/>
<path d="M42.2785 27.8444C42.2785 27.8444 34.8964 15.5745 35.0475 14.2112C35.0475 14.2112 35.8325 27.0709 45.1194 33.4755L42.2785 27.8444Z" fill="#6C63FF"/>
<path d="M43.1435 24.2198C43.1435 24.2198 36.1761 6.79295 33.0242 5.3822C33.0242 5.3822 42.9776 10.4443 43.7241 23.7219L43.1435 24.2198Z" fill="#6C63FF"/>
<path d="M39.2777 58.0953L38.8008 57.9501C44.681 38.7658 46.1474 26.5344 42.9332 23.4669L43.2739 23.1053C46.6836 26.3418 45.3002 38.4398 39.2777 58.0953Z" fill="#444053"/>
<path d="M23.0854 103.014L22.3804 102.762C23.0054 101.004 23.6779 99.2203 24.3829 97.4628C30.5209 82.158 35.7464 67.9202 39.0969 56.9899L39.7101 56.6935C36.3537 67.6445 31.22 82.4277 25.0761 97.7532C24.374 99.4781 23.7045 101.253 23.0854 103.014Z" fill="#444053"/>
<path d="M37.921 208.606C37.8262 208.503 28.2963 197.765 21.6518 179.434C17.7585 168.702 15.5918 157.42 15.2324 146.009C14.7762 131.744 17.7682 115.817 22.893 101.348L23.45 102C11.9442 134.474 16.5151 162.301 22.579 179.058C29.1525 197.223 38.5757 207.842 38.6675 207.948L37.921 208.606Z" fill="#444053"/>
<path d="M186.844 185.809C186.844 185.809 180.128 194.01 185.46 206.407L131.842 229.673L126.696 230.751L124.326 220.378L125.911 207.287V200.133L186.844 185.809Z" fill="#D5D6DB"/>
<path d="M17.5251 180.51L91.7377 166.974L190.073 182.647L128.995 204.647L17.5251 180.51Z" fill="#6C63FF"/>
<path d="M17.5251 180.51L91.7377 166.974L190.073 182.647L128.995 204.647L17.5251 180.51Z" fill="#6C63FF"/>
<path d="M17.5252 180.507C17.5252 180.507 10.5845 193.663 18.5828 205.814L128.634 229.673C128.634 229.673 121.803 219.193 128.986 204.647L17.5252 180.507Z" fill="#6C63FF"/>
<path opacity="0.1" d="M17.5252 180.507C17.5252 180.507 10.5845 193.663 18.5828 205.814L128.634 229.673C128.634 229.673 121.803 219.193 128.986 204.647L17.5252 180.507Z" fill="black"/>
<path opacity="0.1" d="M20.8044 185.068C20.8044 185.068 16.8379 194.694 20.8044 200.924V185.068Z" fill="black"/>
<path d="M128.634 229.673L190.073 203.443C190.073 203.443 193.509 204.184 191.287 206.704C189.065 209.223 129.819 232.192 129.819 232.192L18.5828 205.814L128.634 229.673Z" fill="#6C63FF"/>
<path opacity="0.1" d="M128.634 229.673L190.073 203.443C190.073 203.443 193.509 204.184 191.287 206.704C189.065 209.223 129.819 232.192 129.819 232.192L18.5828 205.814L128.634 229.673Z" fill="black"/>
<path opacity="0.1" d="M123.598 207.296C123.598 207.296 117.673 214.409 123.598 225.079V207.296Z" fill="black"/>
<path opacity="0.1" d="M152.281 207.176L125.706 216.046L125.8 216.327L152.375 207.457L152.281 207.176Z" fill="black"/>
<path opacity="0.1" d="M157.604 206.293L125.698 218.432L125.803 218.709L157.709 206.57L157.604 206.293Z" fill="black"/>
<path opacity="0.1" d="M162.492 206.251L125.876 221.245L125.988 221.52L162.605 206.525L162.492 206.251Z" fill="black"/>
<path opacity="0.1" d="M167.808 204.967L126.303 223.724L126.425 223.995L167.93 205.237L167.808 204.967Z" fill="black"/>
<path opacity="0.1" d="M172.274 204.973L126.632 224.932L126.751 225.204L172.393 205.244L172.274 204.973Z" fill="black"/>
<path opacity="0.1" d="M182.043 203.313L127.32 226.959L127.438 227.232L182.16 203.585L182.043 203.313Z" fill="black"/>
<path opacity="0.3" d="M45.0957 181.956L97.2329 170.99L128.995 177.066L86.2722 190.848L45.0957 181.956Z" fill="white"/>
<path d="M190.073 182.647C190.073 182.647 192.768 183.735 191.187 185.415C189.605 187.095 128.986 204.647 128.986 204.647L190.073 182.647Z" fill="#6C63FF"/>
<path d="M216.257 157.304C216.257 157.304 209.544 165.502 214.876 177.902L161.258 201.167L156.112 202.252L153.742 191.879L155.351 178.791V171.628L216.257 157.304Z" fill="#D5D6DB"/>
<path d="M46.9412 152.002L121.151 138.469L219.489 154.142L158.411 176.141L46.9412 152.002Z" fill="#3A3768"/>
<path d="M46.9294 152.002C46.9294 152.002 39.9857 165.158 47.984 177.309L158.035 201.167C158.035 201.167 151.207 190.679 158.399 176.138L46.9294 152.002Z" fill="#3A3768"/>
<path opacity="0.1" d="M46.9294 152.002C46.9294 152.002 39.9857 165.158 47.984 177.309L158.035 201.167C158.035 201.167 151.207 190.679 158.399 176.138L123.598 168.602L46.9294 152.002Z" fill="black"/>
<path opacity="0.1" d="M50.2177 156.563C50.2177 156.563 46.2541 166.186 50.2177 172.419V156.563Z" fill="black"/>
<path d="M158.047 201.167L219.489 174.938C219.489 174.938 222.922 175.679 220.7 178.198C218.478 180.717 159.232 203.686 159.232 203.686L47.9958 177.309L158.047 201.167Z" fill="#3A3768"/>
<path opacity="0.1" d="M158.047 201.167L219.489 174.938C219.489 174.938 222.922 175.679 220.7 178.198C218.478 180.717 159.232 203.686 159.232 203.686L47.9958 177.309L158.047 201.167Z" fill="black"/>
<path opacity="0.1" d="M153.011 178.791C153.011 178.791 147.086 185.904 153.011 196.574V178.791Z" fill="black"/>
<path opacity="0.1" d="M181.696 178.674L155.122 187.544L155.215 187.825L181.79 178.955L181.696 178.674Z" fill="black"/>
<path opacity="0.1" d="M187.023 177.79L155.117 189.928L155.222 190.205L187.128 178.067L187.023 177.79Z" fill="black"/>
<path opacity="0.1" d="M191.907 177.743L155.291 192.738L155.403 193.012L192.019 178.017L191.907 177.743Z" fill="black"/>
<path opacity="0.1" d="M197.226 176.46L155.722 195.217L155.844 195.488L197.348 176.73L197.226 176.46Z" fill="black"/>
<path opacity="0.1" d="M201.688 176.462L156.046 196.422L156.165 196.693L201.807 176.734L201.688 176.462Z" fill="black"/>
<path opacity="0.1" d="M211.459 174.802L156.736 198.449L156.854 198.721L211.576 175.074L211.459 174.802Z" fill="black"/>
<path opacity="0.45" d="M74.5117 153.451L126.649 142.485L158.411 148.561L115.688 162.342L74.5117 153.451Z" fill="white"/>
<path d="M219.489 154.141C219.489 154.141 222.181 155.229 220.603 156.907C219.024 158.584 158.411 176.138 158.411 176.138L219.489 154.141Z" fill="#3A3768"/>
<path d="M219.041 124.694C219.041 124.694 212.326 139.415 217.658 151.812L164.04 168.557L158.906 169.645L156.536 159.272L158.121 146.181V139.017L219.041 124.694Z" fill="#D5D6DB"/>
<path d="M49.7349 119.395L123.947 105.859L222.285 121.531L161.205 143.531L49.7349 119.395Z" fill="#6C63FF"/>
<path d="M49.7347 119.392C49.7347 119.392 42.7821 132.548 50.7804 144.699L160.831 168.557C160.831 168.557 154 158.069 161.193 143.531L49.7347 119.392Z" fill="#6C63FF"/>
<path opacity="0.1" d="M49.7347 119.392C49.7347 119.392 42.7821 132.548 50.7804 144.699L160.831 168.557C160.831 168.557 154 158.069 161.193 143.531L49.7347 119.392Z" fill="black"/>
<path opacity="0.1" d="M53.0141 123.953C53.0141 123.953 49.0476 133.579 53.0141 139.809V123.953Z" fill="black"/>
<path d="M160.843 168.557L222.282 148.848C222.282 148.848 225.718 149.589 223.497 152.108C221.275 154.628 162.028 171.076 162.028 171.076L50.7922 144.699L160.843 168.557Z" fill="#6C63FF"/>
<path opacity="0.1" d="M160.843 168.557L222.282 148.848C222.282 148.848 225.718 149.589 223.497 152.108C221.275 154.628 162.028 171.076 162.028 171.076L50.7922 144.699L160.843 168.557Z" fill="black"/>
<path opacity="0.1" d="M155.807 146.181C155.807 146.181 149.883 153.294 155.807 163.963V146.181Z" fill="black"/>
<path opacity="0.1" d="M184.494 146.063L157.919 154.933L158.013 155.214L184.588 146.344L184.494 146.063Z" fill="black"/>
<path opacity="0.1" d="M189.818 145.181L157.912 157.319L158.018 157.596L189.924 145.458L189.818 145.181Z" fill="black"/>
<path opacity="0.1" d="M194.7 145.135L158.083 160.13L158.195 160.404L194.812 145.41L194.7 145.135Z" fill="black"/>
<path opacity="0.1" d="M200.023 143.849L158.518 162.607L158.64 162.877L200.145 144.119L200.023 143.849Z" fill="black"/>
<path opacity="0.1" d="M204.486 143.854L158.844 163.814L158.963 164.086L204.605 144.126L204.486 143.854Z" fill="black"/>
<path opacity="0.1" d="M214.256 142.197L159.534 165.843L159.651 166.115L214.373 142.469L214.256 142.197Z" fill="black"/>
<path opacity="0.3" d="M77.3052 120.841L129.442 109.875L161.205 115.951L118.482 129.732L77.3052 120.841Z" fill="white"/>
<path d="M222.282 121.531C222.282 121.531 224.978 122.619 223.396 124.3C221.814 125.98 161.205 143.531 161.205 143.531L222.282 121.531Z" fill="#6C63FF"/>
<path d="M91.957 31.5639C91.957 31.5639 80.7001 30.8852 82.0153 38.7866C82.0153 38.7866 81.7517 40.1825 83.0166 40.8167C83.0166 40.8167 83.0373 40.224 84.1719 40.4285C84.5768 40.4981 84.9886 40.518 85.3983 40.4877C85.9506 40.4499 86.4756 40.2336 86.8943 39.8713C86.8943 39.8713 90.0611 38.5613 91.2934 33.3807C91.2934 33.3807 92.2058 32.2515 92.1821 31.961L90.2744 32.7731C90.2744 32.7731 90.9231 34.1453 90.4136 35.2864C90.4136 35.2864 90.3514 32.8235 89.984 32.8798C89.91 32.8798 88.9976 33.357 88.9976 33.357C88.9976 33.357 90.1144 35.7487 89.2701 37.4855C89.2701 37.4855 89.59 34.5395 88.648 33.5289L87.309 34.3113C87.309 34.3113 88.6154 36.7801 87.7297 38.7954C87.7297 38.7954 87.9578 35.7043 87.0276 34.501L85.8131 35.4494C85.8131 35.4494 87.0424 37.8826 86.293 39.5542C86.293 39.5542 86.1952 35.9562 85.5524 35.6835C85.5524 35.6835 84.4889 36.6201 84.3289 37.0053C84.3289 37.0053 85.1702 38.7836 84.6459 39.7053C84.6459 39.7053 84.3289 37.3076 84.0534 37.2958C84.0534 37.2958 82.9959 38.8844 82.8863 39.9632C82.9375 38.9574 83.251 37.9826 83.7957 37.1357C83.1862 37.2511 82.6239 37.5427 82.1783 37.9745C82.1783 37.9745 82.3412 36.8512 84.0594 36.7534C84.0594 36.7534 84.9332 35.5472 85.1673 35.476C85.1673 35.476 83.458 35.3308 82.4241 35.7902C82.4241 35.7902 83.3365 34.7321 85.4783 35.1975L86.6633 34.2194C86.6633 34.2194 84.4178 33.923 83.4639 34.252C83.4639 34.252 84.563 33.3155 86.9862 33.9971L88.2925 33.2177C88.2925 33.2177 86.3759 32.8057 85.2354 32.9539C85.2354 32.9539 86.4381 32.3048 88.6747 33.0072L89.6049 32.5894C89.6049 32.5894 88.2037 32.3137 87.7919 32.2693C87.3801 32.2248 87.3594 32.1122 87.3594 32.1122C88.2487 31.9661 89.1611 32.0686 89.9959 32.4086C89.9959 32.4086 91.9955 31.6884 91.957 31.5639Z" fill="#6C63FF"/>
<path opacity="0.1" d="M250.324 64.0406C250.324 64.0406 239.067 63.3619 240.382 71.2632C240.382 71.2632 240.118 72.6592 241.383 73.2934C241.383 73.2934 241.404 72.7007 242.539 72.9052C242.944 72.9731 243.355 72.993 243.765 72.9644C244.312 72.9241 244.832 72.7079 245.246 72.348C245.246 72.348 248.416 71.038 249.645 65.8574C249.645 65.8574 250.558 64.7282 250.534 64.4377L248.632 65.2498C248.632 65.2498 249.281 66.622 248.771 67.7631C248.771 67.7631 248.709 65.3002 248.345 65.3565C248.271 65.3565 247.355 65.8337 247.355 65.8337C247.355 65.8337 248.472 68.2254 247.631 69.9622C247.631 69.9622 247.951 67.0162 247.006 66.0056L245.667 66.788C245.667 66.788 246.973 69.2568 246.088 71.2721C246.088 71.2721 246.316 68.1809 245.385 66.9777L244.174 67.9261C244.174 67.9261 245.4 70.3593 244.651 72.0309C244.651 72.0309 244.553 68.4329 243.91 68.1602C243.91 68.1602 242.85 69.0967 242.687 69.482C242.687 69.482 243.528 71.2603 243.007 72.182C243.007 72.182 242.687 69.7843 242.414 69.7725C242.414 69.7725 241.357 71.361 241.247 72.4399C241.298 71.4337 241.613 70.4587 242.159 69.6124C241.549 69.7281 240.986 70.0196 240.539 70.4512C240.539 70.4512 240.705 69.3279 242.42 69.2301C242.42 69.2301 243.294 68.0239 243.528 67.9498C243.528 67.9498 241.822 67.8075 240.785 68.2669C240.785 68.2669 241.697 67.2088 243.839 67.6741L245.024 66.6961C245.024 66.6961 242.776 66.3997 241.825 66.7287C241.825 66.7287 242.921 65.7922 245.347 66.4738L246.65 65.6944C246.65 65.6944 244.734 65.2824 243.593 65.4306C243.593 65.4306 244.796 64.7815 247.032 65.4839L247.966 65.066C247.966 65.066 246.561 64.7904 246.15 64.746C245.738 64.7015 245.717 64.5889 245.717 64.5889C246.606 64.4409 247.519 64.5435 248.354 64.8853C248.354 64.8853 250.359 64.1651 250.324 64.0406Z" fill="#6C63FF"/>
<path opacity="0.1" d="M110.916 80.3768C110.916 80.3768 106.01 70.2023 99.7657 75.2169C99.7657 75.2169 98.4178 75.6674 98.483 77.0811C98.483 77.0811 99.0014 76.8114 99.3717 77.9021C99.51 78.2876 99.693 78.6557 99.9168 78.9987C100.22 79.4636 100.666 79.8173 101.188 80.0063C101.188 80.0063 103.874 82.1343 108.996 80.6821C108.996 80.6821 110.427 80.9281 110.661 80.7562L109.026 79.4907C109.026 79.4907 108.137 80.7265 106.899 80.8362C106.899 80.8362 109.02 79.5825 108.792 79.2921C108.745 79.2328 107.903 78.6608 107.903 78.6608C107.903 78.6608 106.36 80.8036 104.434 80.9133C104.434 80.9133 107.16 79.7574 107.58 78.4385L106.247 77.6502C106.247 77.6502 104.728 79.9975 102.538 80.2049C102.538 80.2049 105.347 78.8979 105.942 77.499L104.526 76.9063C104.526 76.9063 103.001 79.1646 101.176 79.3276C101.176 79.3276 104.268 77.4872 104.191 76.7907C104.191 76.7907 102.855 76.3224 102.441 76.3669C102.441 76.3669 101.309 77.9643 100.243 77.9643C100.243 77.9643 102.177 76.515 102.059 76.2809C102.059 76.2809 100.157 76.1327 99.1554 76.5773C100.058 76.1286 101.062 75.9243 102.067 75.9845C101.668 75.5085 101.139 75.1593 100.545 74.9798C100.545 74.9798 101.605 74.5768 102.527 76.026C102.527 76.026 104.008 76.2009 104.183 76.3698C104.183 76.3698 103.475 74.8109 102.571 74.1322C102.571 74.1322 103.94 74.4078 104.565 76.5032L106.001 77.0722C106.001 77.0722 105.175 74.962 104.414 74.2952C104.414 74.2952 105.764 74.7961 106.354 77.259L107.669 78.0177C107.669 78.0177 107.097 76.1416 106.41 75.2199C106.41 75.2199 107.563 75.9549 108.04 78.2488L108.86 78.8594C108.86 78.8594 108.416 77.499 108.268 77.1197C108.119 76.7403 108.194 76.6632 108.194 76.6632C108.757 77.3669 109.114 78.2134 109.224 79.1083C109.224 79.1083 110.809 80.4657 110.916 80.3768Z" fill="#6C63FF"/>
<path opacity="0.1" d="M224.605 49.6665C224.605 49.6665 219.702 39.4919 213.454 44.5066C213.454 44.5066 212.11 44.9571 212.172 46.3708C212.172 46.3708 212.693 46.1041 213.06 47.1917C213.199 47.5789 213.383 47.948 213.609 48.2913C213.911 48.7554 214.356 49.1082 214.876 49.296C214.876 49.296 217.566 51.424 222.685 49.9747C222.685 49.9747 224.116 50.2177 224.353 50.0458L222.727 48.7774C222.727 48.7774 221.838 50.0162 220.603 50.1259C220.603 50.1259 222.721 48.8692 222.493 48.5788C222.445 48.5195 221.604 47.9475 221.604 47.9475C221.604 47.9475 220.063 50.0903 218.135 50.1999C218.135 50.1999 220.863 49.0441 221.284 47.7282L219.93 46.9458C219.93 46.9458 218.413 49.2901 216.221 49.5005C216.221 49.5005 219.03 48.1905 219.628 46.7916L218.209 46.1989C218.209 46.1989 216.683 48.4602 214.862 48.6203C214.862 48.6203 217.951 46.7798 217.874 46.0863C217.874 46.0863 216.541 45.615 216.126 45.6625C216.126 45.6625 214.995 47.2569 213.925 47.2569C213.925 47.2569 215.863 45.8077 215.744 45.5735C215.744 45.5735 213.843 45.4254 212.838 45.8699C213.741 45.4211 214.745 45.2168 215.75 45.2772C215.353 44.8009 214.824 44.4516 214.231 44.2725C214.231 44.2725 215.291 43.8694 216.212 45.3187C216.212 45.3187 217.694 45.4965 217.868 45.6654C217.868 45.6654 217.16 44.1035 216.254 43.4248C216.254 43.4248 217.622 43.7034 218.248 45.8106L219.687 46.3797C219.687 46.3797 218.861 44.2665 218.099 43.5997C218.099 43.5997 219.45 44.1006 220.037 46.5634L221.355 47.3222C221.355 47.3222 220.78 45.4491 220.093 44.5244C220.093 44.5244 221.248 45.2594 221.722 47.5533L222.543 48.1639C222.543 48.1639 222.102 46.8035 221.95 46.4241C221.799 46.0448 221.876 45.9707 221.876 45.9707C222.438 46.675 222.794 47.5214 222.904 48.4158C222.904 48.4158 224.513 49.7613 224.605 49.6665Z" fill="#6C63FF"/>
<path opacity="0.1" d="M240.272 99.9938C240.272 99.9938 235.37 89.8163 229.113 94.831C229.113 94.831 227.768 95.2815 227.83 96.6952C227.83 96.6952 228.352 96.4285 228.719 97.5162C228.856 97.9031 229.039 98.2723 229.264 98.6157C229.566 99.0798 230.011 99.4326 230.532 99.6204C230.532 99.6204 233.222 101.751 238.344 100.299C238.344 100.299 239.772 100.545 240.009 100.37L238.373 99.1047C238.373 99.1047 237.485 100.344 236.247 100.453C236.247 100.453 238.365 99.1966 238.136 98.9062C238.089 98.8469 237.248 98.2749 237.248 98.2749C237.248 98.2749 235.707 100.418 233.779 100.53C233.779 100.53 236.507 99.3715 236.928 98.0555L235.592 97.2672C235.592 97.2672 234.075 99.6145 231.883 99.8219C231.883 99.8219 234.691 98.512 235.29 97.1131L233.871 96.5203C233.871 96.5203 232.345 98.7787 230.523 98.9417C230.523 98.9417 233.616 97.1012 233.539 96.4047C233.539 96.4047 232.203 95.9335 231.788 95.9809C231.788 95.9809 230.657 97.5754 229.587 97.5754C229.587 97.5754 231.525 96.1262 231.406 95.892C231.406 95.892 229.504 95.7438 228.5 96.1884C229.403 95.7399 230.408 95.5355 231.415 95.5956C231.017 95.1186 230.487 94.7692 229.892 94.5909C229.892 94.5909 230.953 94.1849 231.874 95.6371C231.874 95.6371 233.355 95.812 233.53 95.9809C233.53 95.9809 232.822 94.422 231.919 93.7403C231.919 93.7403 233.287 94.0189 233.912 96.1262L235.349 96.6952C235.349 96.6952 234.522 94.582 233.761 93.9182C233.761 93.9182 235.112 94.4161 235.698 96.8819L237.017 97.6377C237.017 97.6377 236.442 95.7646 235.755 94.8399C235.755 94.8399 236.91 95.5749 237.387 97.8718L238.208 98.4645C238.208 98.4645 237.763 97.1042 237.615 96.7248C237.467 96.3455 237.541 96.2714 237.541 96.2714C238.104 96.9749 238.46 97.8216 238.569 98.7165C238.569 98.7165 240.181 100.083 240.272 99.9938Z" fill="#6C63FF"/>
<path opacity="0.1" d="M59.8246 232.405C63.5859 232.405 66.635 232.064 66.635 231.644C66.635 231.223 63.5859 230.882 59.8246 230.882C56.0633 230.882 53.0142 231.223 53.0142 231.644C53.0142 232.064 56.0633 232.405 59.8246 232.405Z" fill="#6C63FF"/>
<path opacity="0.1" d="M15.1791 219.459C18.9404 219.459 21.9895 219.118 21.9895 218.698C21.9895 218.277 18.9404 217.936 15.1791 217.936C11.4178 217.936 8.36865 218.277 8.36865 218.698C8.36865 219.118 11.4178 219.459 15.1791 219.459Z" fill="#6C63FF"/>
<path opacity="0.1" d="M93.8558 241.003C97.6171 241.003 100.666 240.662 100.666 240.241C100.666 239.821 97.6171 239.48 93.8558 239.48C90.0945 239.48 87.0454 239.821 87.0454 240.241C87.0454 240.662 90.0945 241.003 93.8558 241.003Z" fill="#6C63FF"/>
<path opacity="0.1" d="M268.249 222.275C272.01 222.275 275.059 221.934 275.059 221.513C275.059 221.093 272.01 220.752 268.249 220.752C264.487 220.752 261.438 221.093 261.438 221.513C261.438 221.934 264.487 222.275 268.249 222.275Z" fill="#6C63FF"/>
<path opacity="0.1" d="M211.576 218.579C215.338 218.579 218.387 218.238 218.387 217.818C218.387 217.397 215.338 217.056 211.576 217.056C207.815 217.056 204.766 217.397 204.766 217.818C204.766 218.238 207.815 218.579 211.576 218.579Z" fill="#6C63FF"/>
<path opacity="0.1" d="M174.914 236.605C179.363 236.605 182.969 235.985 182.969 235.221C182.969 234.456 179.363 233.837 174.914 233.837C170.466 233.837 166.86 234.456 166.86 235.221C166.86 235.985 170.466 236.605 174.914 236.605Z" fill="#6C63FF"/>
<path d="M178.508 221.309C178.508 221.309 167.292 227.106 173.086 233.934C173.086 233.934 173.632 235.416 175.208 235.313C175.208 235.313 174.894 234.738 176.096 234.278C176.524 234.113 176.931 233.897 177.308 233.635C177.817 233.283 178.198 232.774 178.392 232.186C178.392 232.186 180.685 229.115 178.908 223.434C178.908 223.434 179.139 221.828 178.937 221.567L177.574 223.437C177.574 223.437 178.982 224.382 179.144 225.772C179.144 225.772 177.663 223.44 177.367 223.698C177.302 223.751 176.692 224.72 176.692 224.72C176.692 224.72 179.133 226.377 179.313 228.529C179.313 228.529 177.939 225.515 176.455 225.085L175.604 226.602C175.604 226.602 178.271 228.226 178.567 230.668C178.567 230.668 177.018 227.571 175.436 226.946L174.811 228.549C174.811 228.549 177.382 230.185 177.619 232.218C177.619 232.218 175.468 228.819 174.695 228.926C174.695 228.926 174.209 230.431 174.274 230.897C174.274 230.897 176.09 232.112 176.123 233.306C176.123 233.306 174.446 231.187 174.188 231.326C174.188 231.326 174.082 233.457 174.597 234.566C174.597 234.566 173.709 232.983 173.854 231.326C173.334 231.786 172.96 232.388 172.778 233.057C172.778 233.057 172.296 231.887 173.886 230.808C173.886 230.808 174.037 229.151 174.221 228.947C174.221 228.947 172.5 229.788 171.768 230.82C171.768 230.82 172.038 229.281 174.372 228.517L174.965 226.893C174.965 226.893 172.63 227.883 171.91 228.754C171.91 228.754 172.429 227.228 175.148 226.496L175.954 225.014C175.954 225.014 173.88 225.713 172.867 226.496C172.867 226.496 173.652 225.183 176.203 224.578L176.858 223.644C176.858 223.644 175.353 224.181 174.932 224.373C174.511 224.566 174.428 224.471 174.428 224.471C175.197 223.821 176.132 223.396 177.127 223.244C177.127 223.244 178.611 221.41 178.508 221.309Z" fill="#6C63FF"/>
<path d="M211.795 111.819C209.858 106.553 199.194 106.058 194.566 107.4C191.278 108.357 184.346 109.436 180.643 109.979L180.404 109.75C180.883 109.608 180.895 109.258 180.836 108.74C180.802 108.056 180.811 107.371 180.866 106.689C183.135 107.394 185.155 105.726 185.155 105.726C187.821 104.54 187.104 99.4662 187.614 98.0792C187.996 97.0419 188.408 90.9307 188.591 87.8839H188.63L188.651 86.8614C188.677 86.4198 188.689 86.162 188.689 86.162C188.689 86.162 188.95 78.7111 189.459 77.2026C189.933 75.8156 190.318 68.827 190.378 67.7186C190.378 67.6238 190.378 67.5734 190.378 67.5734L190.339 66.9273C190.366 66.456 190.378 65.9315 190.375 65.3802C190.375 62.8462 190.111 59.6542 190.079 59.1386C190.079 59.0645 190.079 58.9756 190.079 58.8689C190.099 57.7871 189.963 52.3694 185.357 50.3214C183.659 49.5627 181.618 48.6587 179.642 47.7785C179.133 43.3774 177.968 38.9999 178.069 34.5661C178.069 33.8993 178.128 33.2324 178.194 32.5686C178.194 32.7612 178.173 32.9568 178.17 33.1613C178.17 33.5911 178.17 34.0238 178.17 34.4535C178.345 28.9083 180.439 23.3335 180.244 17.9069C180.226 18.4374 180.187 18.9709 180.137 19.5044C180.239 17.6689 180.047 15.8288 179.568 14.054C179.39 13.4287 179.15 12.7826 178.638 12.3647C178.154 12.0282 177.598 11.8081 177.015 11.7216C175.613 11.3626 174.189 11.0973 172.752 10.9273C172.533 10.2586 172.209 9.62922 171.792 9.0631C168.788 4.93756 164.339 1.06098 159.078 0.171861C156.438 -0.272701 153.402 0.0977671 151.607 1.98567C151.419 2.15152 151.243 2.32974 151.079 2.51915C150.114 3.67204 149.699 5.18652 148.709 6.33645C148.644 6.41351 148.57 6.48464 148.499 6.55873C146.562 8.29253 143.543 8.6541 141.389 10.2101C141.01 10.4894 140.654 10.7997 140.326 11.1377C139.458 11.9981 138.68 12.9444 138.004 13.9622C137.035 15.3255 136.039 16.7451 135.731 18.3722C135.112 21.6323 137.331 24.7235 137.743 28.0044C138.661 35.3456 130.541 41.8599 132.079 49.1033C132.489 50.8828 133.395 52.5095 134.692 53.7949C131.525 56.6638 128.829 59.4468 128.829 59.4468V59.6128H128.329L128.379 60.2055H128.329L128.604 63.4212L128.329 68.1039C128.329 68.1039 128.329 68.1543 128.329 68.2491V68.2728V68.4003C128.329 68.4003 128.329 68.4507 128.329 68.5455H128.346C128.438 70.2615 128.802 76.432 129.235 77.7331C129.745 79.2416 130.002 86.6925 130.002 86.6925C130.002 86.6925 130.565 97.2227 131.081 98.6157C131.596 100.009 130.864 105.068 133.539 106.262C134.322 106.863 135.248 107.247 136.226 107.376C136.09 108.485 136.176 109.288 136.617 109.54C136.806 109.651 137.02 109.712 137.239 109.718C137.058 109.987 136.896 110.269 136.756 110.563C135.695 110.452 134.651 110.206 133.652 109.83C130.778 108.645 121.243 105.978 118.473 107.854C115.703 109.73 109.038 111.431 112.116 118.983C115.193 126.534 116.627 126.724 116.627 126.724C117.575 127.412 118.406 128.247 119.089 129.199C120.013 130.589 128.625 133.769 130.778 133.769C131.694 133.755 132.609 133.8 133.519 133.905C133.519 133.905 131.181 135.956 131.492 137.147C131.803 138.339 130.781 147.876 130.781 147.876C130.781 147.876 133.151 150.265 134.164 147.132L134.2 147.18C134.389 147.437 135.414 148.602 137.343 147.132C138.132 146.533 138.971 146.002 139.849 145.544L149.186 144.222C150.16 144.161 151.136 144.154 152.11 144.201C153.591 144.323 155.046 143.445 155.961 142.767C157.896 143.502 160.07 144.305 161.104 144.598C163.201 145.191 172.841 147.778 175.095 146.969C175.564 146.783 175.98 146.486 176.31 146.104L178.46 146.172L177.453 146.373C177.453 146.373 179.414 146.406 182.08 146.442L181.968 146.507L185.312 146.477C190.206 146.522 195.704 146.536 196.427 146.373C197.558 146.122 203.439 146.299 205.172 146.373H205.655C205.655 146.373 212.115 145.084 209.449 138.525C207.399 133.487 201.098 132.023 198.302 131.62C199.09 131.463 199.768 131.341 200.219 131.27C202.171 130.974 205.963 129.196 206.271 128.588C206.579 127.98 209.757 126.217 210.578 125.212C211.398 124.208 213.742 117.086 211.795 111.819ZM158.281 126.558L157.964 126.662L157.75 126.733L157.342 127.136C157.016 126.916 156.666 126.685 156.302 126.448C156.945 126.487 157.605 126.525 158.281 126.558Z" fill="url(#paint0_linear)"/>
<path d="M177.169 95.3081C177.169 95.3081 181.701 107.163 184.278 105.978C186.856 104.792 186.156 99.7537 186.648 98.3726C187.14 96.9915 187.685 86.5176 187.685 86.5176C187.685 86.5176 187.934 79.1083 188.426 77.6086C188.882 76.2305 189.252 69.2805 189.314 68.1869C189.314 68.092 189.314 68.0416 189.314 68.0416L188.825 59.4468L186.059 58.7562L179.642 61.1272L178.754 66.2041L178.407 68.1869L178.259 69.0315L177.169 95.3081Z" fill="#BE6F72"/>
<path opacity="0.1" d="M178.662 93.3224C178.662 93.3224 182.987 96.8641 184.29 97.1753C185.594 97.4864 186.394 100.249 186.394 100.249" fill="black"/>
<path d="M141.724 95.8268C141.724 95.8268 137.192 107.682 134.615 106.496C132.037 105.311 132.736 100.272 132.245 98.8913C131.753 97.5102 131.208 87.0363 131.208 87.0363C131.208 87.0363 130.959 79.6269 130.467 78.1273C130.011 76.7492 129.641 69.7992 129.579 68.7055C129.579 68.6107 129.579 68.5603 129.579 68.5603L130.07 59.9655L132.837 59.2749L139.254 61.6459L140.142 66.7228L140.489 68.7055L140.637 69.5502L141.724 95.8268Z" fill="#BE6F72"/>
<path d="M171.238 32.3849H161.122V48.1609H171.238V32.3849Z" fill="#3E373A"/>
<path opacity="0.1" d="M171.238 32.3849H161.122V48.1609H171.238V32.3849Z" fill="black"/>
<path d="M139.947 107.634C139.947 107.634 136.49 111.437 137.772 112.127C139.055 112.818 147.353 125.761 147.353 125.761C147.353 125.761 174.606 129.119 179.746 124.08C184.886 119.042 184.782 110.041 184.782 110.041C184.782 110.041 180.652 110.93 180.202 110.447C179.752 109.964 177.278 107.634 177.278 107.634C177.278 107.634 142.317 105.512 139.947 107.634Z" fill="#4B4B5B"/>
<path opacity="0.02" d="M139.947 107.634C139.947 107.634 136.49 111.437 137.772 112.127C139.055 112.818 147.353 125.761 147.353 125.761C147.353 125.761 174.606 129.119 179.746 124.08C184.886 119.042 184.782 110.041 184.782 110.041C184.782 110.041 180.652 110.93 180.202 110.447C179.752 109.964 177.278 107.634 177.278 107.634C177.278 107.634 142.317 105.512 139.947 107.634Z" fill="black"/>
<path d="M189.009 59.5714L180.122 66.6844L177.435 66.88L176.449 66.9511L159.88 68.1663L142.699 66.9096L140.142 66.7229L136.884 66.4858L130.07 59.9656C130.07 59.9656 134.893 54.7968 139.117 51.3085C140.782 49.9303 142.355 48.816 143.502 48.3773L143.697 48.3092C144.418 48.0278 145.062 47.5788 145.575 46.9992C148.911 43.5583 151.995 35.0671 151.995 35.0671C151.995 35.0671 166.709 27.4622 164.931 37.4381C163.154 47.4141 171.546 44.9483 171.546 44.9483L174.313 46.2108L175.406 46.7117L178.194 47.9891L184.483 50.8758C189.418 53.149 189.009 59.5714 189.009 59.5714Z" fill="#BE6F72"/>
<path opacity="0.1" d="M159.19 43.1906C166.499 43.1906 172.423 37.2633 172.423 29.9516C172.423 22.6399 166.499 16.7125 159.19 16.7125C151.882 16.7125 145.958 22.6399 145.958 29.9516C145.958 37.2633 151.882 43.1906 159.19 43.1906Z" fill="black"/>
<path opacity="0.1" d="M189.03 69.0019H129.579C129.579 68.9071 129.579 68.8567 129.579 68.8567L130.07 60.2618C130.07 60.2618 134.893 55.0931 139.117 51.6047L176.443 50.1229L178.179 48.2913L184.468 51.1779C189.406 53.4482 189.009 59.8706 189.009 59.8706C189.009 59.8706 189.684 67.3126 189.03 69.0019Z" fill="black"/>
<path d="M189.03 68.7057H129.579C129.579 68.6108 129.579 68.5604 129.579 68.5604L130.07 59.9656C130.07 59.9656 134.893 54.7968 139.117 51.3085L176.443 49.8266L178.179 47.995L184.468 50.8817C189.406 53.1519 189.009 59.5744 189.009 59.5744C189.009 59.5744 189.684 67.0163 189.03 68.7057Z" fill="#E7C7CA"/>
<path opacity="0.1" d="M149.66 44.6044C149.66 44.6044 159.039 56.5601 171.531 44.3584C184.024 32.1566 172.915 71.5745 172.915 71.5745L145.958 74.7753L149.66 44.6044Z" fill="black"/>
<path d="M149.66 45.1972C149.66 45.1972 159.039 57.1529 171.531 44.9512C184.024 32.7494 172.915 72.1673 172.915 72.1673L145.958 75.3681L149.66 45.1972Z" fill="#E7C7CA"/>
<path opacity="0.1" d="M175.391 47.2954L176.384 62.4372L177.447 67.4756L178.259 71.3284C178.259 71.3284 180.332 100.966 179.74 102.448C179.147 103.93 180.036 105.115 180.161 105.903C180.285 106.692 180.036 108.672 180.134 109.561C180.232 110.45 180.134 110.844 177.865 110.527C175.596 110.21 172.432 109.659 172.432 109.659C172.432 109.659 164.434 110.251 161.67 109.264C158.906 108.277 153.671 108.274 153.671 108.274C153.671 108.274 145.771 108.473 143.205 108.177C140.64 107.88 139.254 111.339 137.577 110.349C135.9 109.359 139.55 99.7804 140.735 97.0123C141.92 94.2441 139.156 87.2319 139.156 87.2319L142.711 67.5022L143.502 63.0299V48.9699L143.697 48.9018C144.418 48.6204 145.062 48.1714 145.575 47.5918L146.464 61.7407L174.31 62.7306V46.8064" fill="black"/>
<path d="M175.391 46.7028L176.384 61.8445L177.447 66.8829L178.259 70.7358C178.259 70.7358 180.332 100.373 179.74 101.855C179.147 103.337 180.036 104.522 180.161 105.311C180.285 106.099 180.036 108.079 180.134 108.968C180.232 109.857 180.134 110.251 177.865 109.934C175.596 109.617 172.432 109.066 172.432 109.066C172.432 109.066 164.434 109.659 161.67 108.672C158.906 107.685 153.671 107.682 153.671 107.682C153.671 107.682 145.771 107.88 143.205 107.584C140.64 107.288 139.254 110.746 137.577 109.756C135.9 108.767 139.55 99.1877 140.735 96.4196C141.92 93.6515 139.156 86.6392 139.156 86.6392L142.711 66.9096L143.502 62.4373V48.3773L143.697 48.3091C144.418 48.0278 145.062 47.5787 145.575 46.9991L146.464 61.1481L174.31 62.138V46.2137" fill="#E7C7CA"/>
<path opacity="0.1" d="M178.594 15.1033C178.425 14.4839 178.191 13.8407 177.705 13.4258C177.241 13.0925 176.705 12.8732 176.141 12.7856C174.79 12.4302 173.416 12.1668 172.029 11.9973C171.831 11.3392 171.531 10.7162 171.14 10.1509C168.237 6.04903 163.942 2.18135 158.888 1.30704C156.243 0.847661 153.177 1.25962 151.482 3.3461C150.552 4.49307 150.152 6.01347 149.213 7.13969C147.403 9.32694 144.136 9.59664 141.855 11.2889C140.637 12.1781 139.754 13.4673 138.892 14.718C137.959 16.0724 136.999 17.4832 136.703 19.1014C136.111 22.3348 138.246 25.4171 138.64 28.6802C139.529 35.9799 131.709 42.4557 133.187 49.6576C134.049 53.8572 137.927 56.815 141.938 58.3147C143.351 58.8452 144.965 59.3728 145.626 60.7302C145.922 61.3229 145.972 62.0075 146.251 62.6062C147.187 64.6038 150.265 64.6808 151.918 63.2256C153.571 61.7704 154.092 59.4172 154.288 57.2211C155.081 47.6304 151.242 38.1553 151.69 28.5409C151.823 25.6335 152.64 22.3348 155.244 21.0189C158.749 19.2407 162.964 22.2044 166.821 21.6383C168.646 26.0814 169.034 30.985 167.929 35.6598C167.316 38.2175 166.255 40.6982 166.178 43.3359C166.063 47.3518 168.228 51.0209 170.101 54.5715C170.502 55.2354 170.771 55.9713 170.891 56.738C170.921 57.5159 170.776 58.2905 170.468 59.0053C169.41 61.8534 167.585 64.4971 167.378 67.529C167.317 67.8829 167.397 68.2466 167.6 68.5426C167.809 68.7401 168.078 68.8613 168.365 68.8864C171.564 69.4347 174.331 66.5984 175.892 63.7502C177.632 60.6044 178.647 57.1086 178.86 53.5194C179.183 47.4852 177.021 41.5488 177.154 35.5087C177.308 28.6417 180.409 21.7273 178.594 15.1033Z" fill="black"/>
<path d="M178.89 14.8069C178.721 14.1875 178.487 13.5443 178.001 13.1294C177.537 12.7961 177.001 12.5768 176.437 12.4892C175.086 12.1338 173.712 11.8704 172.325 11.7009C172.127 11.0428 171.827 10.4198 171.436 9.85447C168.533 5.75265 164.238 1.88496 159.184 1.01065C156.539 0.551274 153.473 0.963234 151.778 3.04971C150.848 4.19668 150.448 5.71708 149.509 6.84331C147.699 9.03055 144.432 9.30025 142.151 10.9926C140.933 11.8817 140.05 13.1709 139.188 14.4216C138.255 15.776 137.295 17.1868 136.999 18.805C136.407 22.0384 138.543 25.1207 138.937 28.3838C139.825 35.6835 132.005 42.1593 133.483 49.3612C134.345 53.5608 138.223 56.5187 142.234 58.0183C143.647 58.5488 145.261 59.0764 145.922 60.4338C146.218 61.0265 146.268 61.7111 146.547 62.3098C147.483 64.3074 150.561 64.3844 152.214 62.9292C153.867 61.474 154.388 59.1208 154.584 56.9247C155.378 47.334 151.538 37.8589 151.986 28.2445C152.119 25.3371 152.937 22.0384 155.541 20.7225C159.045 18.9443 163.26 21.908 167.117 21.342C168.942 25.785 169.33 30.6886 168.225 35.3634C167.612 37.9212 166.552 40.4018 166.474 43.0395C166.359 47.0554 168.524 50.7245 170.397 54.2751C170.798 54.9391 171.067 55.6749 171.188 56.4416C171.217 57.2195 171.072 57.9941 170.764 58.7089C169.706 61.557 167.882 64.2007 167.674 67.2326C167.613 67.5865 167.693 67.9502 167.896 68.2462C168.105 68.4438 168.374 68.5649 168.661 68.59C171.86 69.1383 174.627 66.302 176.188 63.4538C177.929 60.3081 178.943 56.8122 179.156 53.223C179.479 47.1888 177.317 41.2524 177.45 35.2123C177.604 28.3453 180.706 21.4309 178.89 14.8069Z" fill="#3E373A"/>
<path d="M172.346 146.033L184.098 146.409L182.412 137.69L173.409 138.546L172.346 146.033Z" fill="#C3C7D9"/>
<path d="M208.759 125.367C207.968 126.353 204.908 128.132 204.612 128.724C204.316 129.317 200.663 131.095 198.785 131.392C196.907 131.688 190.985 132.974 189.898 133.665C189.119 134.163 182.865 135.74 178.757 136.614C177.644 136.877 176.517 137.08 175.382 137.222C173.605 137.319 154.154 130.701 154.154 130.701L157.905 126.848L158.112 126.777C159.172 126.419 164.072 124.762 166.792 123.974C169.855 123.084 173.41 119.43 173.41 119.43C173.41 119.43 178.641 117.652 179.334 117.453C180.027 117.255 177.557 110.539 177.557 110.539C177.557 110.539 188.911 108.962 193.355 107.626C197.798 106.289 208.069 106.784 209.944 112.021C211.819 117.258 209.562 124.38 208.759 125.367Z" fill="#4B4B5B"/>
<path d="M157.016 142.061C157.016 142.061 154.747 144.432 152.475 144.237C150.203 144.041 142.258 144.829 142.258 144.829C140.818 145.404 139.469 146.186 138.255 147.15C136.398 148.614 135.412 147.446 135.228 147.197L135.195 147.15C134.206 150.265 131.937 147.891 131.937 147.891C131.937 147.891 132.923 138.407 132.621 137.221C132.319 136.036 134.573 134 134.573 134L137.239 133.321L143.993 131.59L153.671 134.948L157.016 142.061Z" fill="#E7C7CA"/>
<path opacity="0.1" d="M137.228 133.321L135.228 147.197L135.195 147.15C134.206 150.265 131.937 147.891 131.937 147.891C131.937 147.891 132.923 138.407 132.621 137.221C132.319 136.036 134.573 134 134.573 134L137.228 133.321Z" fill="black"/>
<path opacity="0.1" d="M151.204 93.85C151.204 93.85 156.435 95.6283 160.98 93.85H151.204Z" fill="black"/>
<path opacity="0.1" d="M169.064 97.2109C169.064 97.2109 171.235 98.2957 172.915 97.2109H169.064Z" fill="black"/>
<path opacity="0.1" d="M169.064 99.7834C169.064 99.7834 172.716 100.272 173.409 99.2855L169.064 99.7834Z" fill="black"/>
<path opacity="0.1" d="M167.879 105.311C167.879 105.311 174.739 104.422 176.443 103.236L167.879 105.311Z" fill="black"/>
<path opacity="0.1" d="M146.944 103.236C146.944 103.236 150.795 105.409 153.659 105.311L146.944 103.236Z" fill="black"/>
<path opacity="0.1" d="M178.753 136.614C177.64 136.877 176.514 137.08 175.379 137.221C173.602 137.319 154.151 130.701 154.151 130.701L157.901 126.848L158.109 126.777C158.701 127.195 159.187 127.554 159.534 127.826C161.166 129.113 162.742 127.432 163.334 127.432C163.927 127.432 169.061 131.679 169.061 131.679C169.061 131.679 173.8 132.767 174.591 133.754C175.382 134.741 178.146 134.545 178.638 135.236C178.786 135.449 178.804 135.974 178.753 136.614Z" fill="black"/>
<path d="M142.258 110.942C142.258 110.942 137.465 111.218 134.701 110.053C131.937 108.888 122.754 106.2 120.087 108.088C117.421 109.976 111.002 111.644 113.964 119.155C116.927 126.665 118.31 126.86 118.31 126.86C119.227 127.548 120.027 128.378 120.68 129.32C121.569 130.704 129.863 133.864 131.937 133.864C134.01 133.864 137.663 133.864 142.797 137.42C147.931 140.977 152.573 141.374 152.573 141.374C152.573 141.374 159.09 144.041 161.119 144.634C163.148 145.227 172.42 147.793 174.595 147.005C176.769 146.216 178.149 141.273 178.149 141.273C178.149 141.273 179.136 136.827 178.641 136.137C178.146 135.446 175.383 135.642 174.595 134.655C173.807 133.668 169.064 132.58 169.064 132.58C169.064 132.58 163.942 128.33 163.35 128.33C162.757 128.33 161.181 130.008 159.549 128.724C156.297 126.315 152.881 124.136 149.326 122.204C145.575 120.227 142.258 110.942 142.258 110.942Z" fill="#4B4B5B"/>
<path opacity="0.1" d="M132.621 113.808C133.475 113.633 134.357 113.658 135.199 113.881C136.041 114.104 136.82 114.518 137.476 115.091C139.846 117.068 147.821 121.036 147.821 121.036" fill="black"/>
<path opacity="0.1" d="M191.874 113.683C191.874 113.683 181.307 115.284 179.334 117.456L191.874 113.683Z" fill="black"/>
<path d="M204.019 146.409H203.554C201.883 146.35 196.222 146.172 195.132 146.409C193.85 146.705 176.864 146.409 176.864 146.409L180.184 145.718C180.184 145.718 178.952 141.397 179.734 141.039C179.734 141.039 175.291 138.111 178.641 136.134C181.991 134.157 185.602 134.99 185.602 134.99L194.013 132.139L195.627 131.59C195.627 131.59 205.106 132.085 207.672 138.606C210.237 145.126 204.019 146.409 204.019 146.409Z" fill="#E7C7CA"/>
<path opacity="0.1" d="M204.019 146.409H203.554C206.312 144.133 212.551 137.204 194.012 132.153L195.627 131.605C195.627 131.605 205.106 132.1 207.672 138.62C210.237 145.141 204.019 146.409 204.019 146.409Z" fill="black"/>
<path d="M186.592 138.727C186.878 138.727 187.11 138.495 187.11 138.208C187.11 137.922 186.878 137.69 186.592 137.69C186.306 137.69 186.073 137.922 186.073 138.208C186.073 138.495 186.306 138.727 186.592 138.727Z" fill="#4B4B5B"/>
<path d="M183.579 139.584C183.866 139.584 184.098 139.351 184.098 139.065C184.098 138.778 183.866 138.546 183.579 138.546C183.293 138.546 183.061 138.778 183.061 139.065C183.061 139.351 183.293 139.584 183.579 139.584Z" fill="#4B4B5B"/>
<g opacity="0.1">
<path opacity="0.1" d="M168.901 29.4626C169.016 26.2027 168.436 22.9557 167.201 19.9371C163.349 20.5121 159.131 17.5394 155.624 19.3177C153.029 20.6336 152.214 23.9322 152.069 26.8397C152.033 27.6073 152.027 28.3749 152.042 29.1425C152.042 28.8698 152.042 28.5942 152.069 28.3215C152.205 25.4141 153.02 22.1154 155.624 20.7995C159.131 19.0213 163.344 21.985 167.201 21.419C168.247 23.9758 168.823 26.7008 168.901 29.4626Z" fill="black"/>
<path opacity="0.1" d="M139.058 28.9203C139.109 28.2745 139.096 27.6253 139.02 26.982C138.706 24.3739 137.281 21.8814 137.023 19.3385C136.691 22.406 138.644 25.3519 139.02 28.4639C139.058 28.6239 139.058 28.7662 139.058 28.9203Z" fill="black"/>
<path opacity="0.1" d="M154.667 55.5169C154.483 57.716 153.965 60.0663 152.297 61.5244C150.629 62.9826 147.557 62.9026 146.63 60.905C146.334 60.3123 146.289 59.6217 146.002 59.029C145.344 57.6716 143.727 57.144 142.314 56.6135C138.3 55.1109 134.428 52.1679 133.566 47.9564C133.489 47.5749 133.437 47.1888 133.409 46.8005C133.336 47.6828 133.389 48.5709 133.566 49.4383C134.428 53.6379 138.306 56.5928 142.314 58.0954C143.727 58.6259 145.344 59.1534 146.002 60.5108C146.298 61.1036 146.349 61.7882 146.63 62.3869C147.563 64.3845 150.641 64.4615 152.297 63.0063C153.953 61.5511 154.468 59.1979 154.667 56.9988C154.757 55.8413 154.788 54.68 154.759 53.5194C154.759 54.1921 154.72 54.856 154.667 55.5169Z" fill="black"/>
<path opacity="0.1" d="M177.548 33.8075C177.548 34.2372 177.548 34.664 177.548 35.0908C177.714 29.5782 179.734 24.036 179.536 18.639C179.382 23.63 177.661 28.7336 177.548 33.8075Z" fill="black"/>
<path opacity="0.1" d="M171.191 56.1067C171.264 55.7551 171.287 55.3949 171.259 55.0368C171.14 54.2698 170.871 53.5337 170.468 52.8703C168.756 49.6102 166.804 46.273 166.573 42.6543C166.573 42.8084 166.552 42.9507 166.549 43.1166C166.43 47.1296 168.596 50.8016 170.468 54.3522C170.786 54.9021 171.029 55.4922 171.191 56.1067Z" fill="black"/>
<path opacity="0.1" d="M179.251 51.8182C179.03 55.4089 178.009 58.9045 176.262 62.0491C174.698 64.8972 171.934 67.7335 168.732 67.1852C168.445 67.1605 168.176 67.0381 167.968 66.8385C167.908 66.7706 167.861 66.6922 167.829 66.6073C167.793 66.8385 167.763 67.0726 167.746 67.3097C167.684 67.6627 167.764 68.0256 167.968 68.3204C168.176 68.52 168.445 68.6424 168.732 68.6671C171.934 69.2154 174.698 66.3791 176.262 63.5309C178.009 60.3864 179.03 56.8907 179.251 53.3001C179.287 52.6066 179.29 51.916 179.269 51.2255C179.263 51.424 179.263 51.6196 179.251 51.8182Z" fill="black"/>
</g>
<path opacity="0.1" d="M179.734 141.039C179.734 141.039 187.232 144.186 192.176 137.221" stroke="black" stroke-miterlimit="10"/>
<path opacity="0.1" d="M181.209 146.539C181.209 146.539 187.332 142.556 195.132 146.409" stroke="black" stroke-miterlimit="10"/>
<path opacity="0.1" d="M140.222 145.636C140.222 145.636 142.794 139.833 149.66 144.257" stroke="black" stroke-miterlimit="10"/>
<path opacity="0.1" d="M131.886 59.8173L137.13 55.0753C137.13 55.0753 157.46 53.7417 158.301 60.6561C158.301 60.6561 165.509 52.4584 180.667 54.284L187.081 59.3935L169.354 67.1763L152.128 73.1542L139.44 67.4727L131.886 59.8173Z" fill="black"/>
<path d="M131.886 60.1136L137.13 55.3716C137.13 55.3716 157.46 54.0379 158.301 60.9523C158.301 60.9523 165.509 52.7546 180.667 54.5803L187.081 59.6898L169.354 67.4726L152.128 73.4505L139.44 67.769L131.886 60.1136Z" fill="#D5D6DB"/>
<path opacity="0.1" d="M129.567 60.7064L131.886 88.4678L156.474 89.7037L155.407 62.0608L155.387 61.5955L129.567 60.7064Z" fill="black"/>
<path d="M129.567 60.1136L131.886 87.8751L156.474 89.111L155.407 61.4681L155.387 61.0028L129.567 60.1136Z" fill="#6C63FF"/>
<path opacity="0.1" d="M188.206 60.1136L162.843 63.9191V91.805L187.629 88.2218L188.206 60.1136Z" fill="black"/>
<path d="M188.206 59.521L162.843 63.3264V91.2123L187.629 87.6292L188.206 59.521Z" fill="#6C63FF"/>
<path opacity="0.3" d="M182.225 66.3257L168.524 67.8491L168.824 72.5199L182.216 71.0558L182.225 66.3257Z" fill="white"/>
<path d="M133.219 102.741L134.615 106.496C134.615 106.496 136.688 108.275 138.957 107.385C141.227 106.496 143.205 106.055 144.192 105.189C145.178 104.324 146.562 99.9761 146.562 99.9761C146.562 99.9761 147.945 95.2341 149.326 94.0486C150.706 92.8631 154.362 76.5299 149.326 78.1273C144.29 79.7248 140.439 94.5435 140.439 94.5435C140.439 94.5435 139.55 95.6283 138.267 95.729C136.985 95.8298 134.416 95.5305 133.921 96.6181C133.427 97.7058 131.738 100.569 133.219 102.741Z" fill="#BE6F72"/>
<path opacity="0.1" d="M162.843 63.9161C161.544 64.2089 160.195 64.1935 158.904 63.8714C157.612 63.5492 156.414 62.9292 155.404 62.0608L156.474 89.7007C156.474 89.7007 158.992 92.4273 162.843 91.805V63.9161Z" fill="black"/>
<path d="M162.843 63.3234C161.544 63.6162 160.195 63.6009 158.904 63.2787C157.612 62.9566 156.414 62.3365 155.404 61.4681L156.474 89.108C156.474 89.108 158.992 91.8347 162.843 91.2123V63.3234Z" fill="#6C63FF"/>
<path opacity="0.1" d="M162.843 63.3234C161.544 63.6162 160.195 63.6009 158.904 63.2787C157.612 62.9566 156.414 62.3365 155.404 61.4681L156.474 89.108C156.474 89.108 158.992 91.8347 162.843 91.2123V63.3234Z" fill="black"/>
<path opacity="0.1" d="M163.435 60.2085C163.435 60.2085 173.753 57.0521 176.443 57.4966L163.435 60.2085Z" fill="black"/>
<path opacity="0.1" d="M151.894 58.8304C151.894 58.8304 141.893 56.4594 140.222 57.1322L151.894 58.8304Z" fill="black"/>
<path opacity="0.1" d="M169.941 60.6026C169.941 60.6026 176.84 58.0716 179.334 59.2749L169.941 60.6026Z" fill="black"/>
<path opacity="0.1" d="M166.466 124.095C167.535 123.292 168.673 122.585 169.867 121.982C171.644 121.125 174.903 118.903 174.903 118.903" fill="black"/>
<path opacity="0.1" d="M140.222 93.85C140.222 93.85 135.894 97.3917 134.594 97.7028C133.294 98.014 132.491 100.776 132.491 100.776" fill="black"/>
<path d="M185.662 102.214L184.281 105.978C184.281 105.978 182.208 107.756 179.935 106.867C177.663 105.978 175.69 105.536 174.701 104.671C173.712 103.805 172.331 99.4574 172.331 99.4574C172.331 99.4574 170.951 94.7154 169.567 93.5299C168.184 92.3444 164.531 76.0112 169.567 77.6086C174.603 79.2061 178.454 94.0248 178.454 94.0248C178.454 94.0248 179.343 95.1096 180.626 95.2103C181.908 95.3111 184.477 95.0118 184.971 96.0995C185.466 97.1871 187.143 100.05 185.662 102.214Z" fill="#BE6F72"/>
<path opacity="0.1" d="M183.241 95.2904C183.241 95.2904 186.07 97.1101 186.059 99.2855L183.241 95.2904Z" fill="black"/>
<path d="M159.238 42.5416C166.546 42.5416 172.47 36.6143 172.47 29.3025C172.47 21.9908 166.546 16.0635 159.238 16.0635C151.929 16.0635 146.005 21.9908 146.005 29.3025C146.005 36.6143 151.929 42.5416 159.238 42.5416Z" fill="#BE6F72"/>
<path d="M150.928 25.749C152.534 25.4971 153.941 24.5635 155.475 24.027C158.909 22.8208 162.706 23.6477 166.181 24.7354C167.514 25.1533 168.868 25.6245 170.266 25.6245C171.664 25.6245 173.149 25.0525 173.863 23.8463C174.52 22.7378 174.393 21.2974 173.839 20.1327C173.285 18.9679 172.358 18.0314 171.422 17.1482C168.341 14.2378 164.519 11.5171 160.292 11.8134C158.592 11.935 156.965 12.5425 155.401 13.2153C153.432 14.0644 151.515 15.0303 149.66 16.1079C148.235 16.9348 145.596 18.0403 144.775 19.5518C142.909 22.9571 148.025 26.2054 150.928 25.749Z" fill="#3E373A"/>
<path opacity="0.1" d="M173.863 22.6016C173.149 23.8078 171.665 24.3798 170.267 24.3798C168.868 24.3798 167.515 23.9264 166.178 23.5085C162.704 22.4208 158.909 21.5909 155.473 22.8001C153.941 23.3366 152.531 24.282 150.925 24.5191C148.585 24.8866 144.817 22.8476 144.408 20.2543C143.949 23.2506 148.319 25.8172 150.925 25.4082C152.531 25.1563 153.941 24.2227 155.473 23.6893C158.909 22.48 162.704 23.3099 166.178 24.3976C167.515 24.8155 168.865 25.2867 170.267 25.2689C171.668 25.2511 173.149 24.6999 173.863 23.4907C174.233 22.8329 174.378 22.0723 174.278 21.3242C174.231 21.7746 174.09 22.21 173.863 22.6016Z" fill="black"/>
<path d="M281.25 183.222C281.25 183.222 283.007 185.519 280.439 188.989C277.87 192.46 275.755 195.388 276.608 197.552C276.608 197.552 280.483 191.108 283.635 191.016C286.787 190.925 284.713 187.095 281.25 183.222Z" fill="#6C63FF"/>
<path opacity="0.1" d="M281.25 183.222C281.403 183.444 281.524 183.686 281.609 183.942C284.684 187.558 286.325 190.933 283.366 191.016C280.611 191.096 277.308 196.025 276.517 197.267C276.542 197.367 276.573 197.466 276.608 197.563C276.608 197.563 280.483 191.12 283.635 191.028C286.787 190.936 284.713 187.095 281.25 183.222Z" fill="black"/>
<path d="M284.509 186.15C284.509 186.959 284.417 187.614 284.308 187.614C284.198 187.614 284.103 186.959 284.103 186.15C284.103 185.341 284.216 185.723 284.328 185.723C284.441 185.723 284.509 185.341 284.509 186.15Z" fill="#FFD037"/>
<path d="M285.632 187.116C284.924 187.501 284.305 187.736 284.251 187.638C284.198 187.54 284.728 187.146 285.436 186.749C286.144 186.351 285.866 186.642 285.919 186.749C285.972 186.855 286.343 186.728 285.632 187.116Z" fill="#FFD037"/>
<path d="M271.967 183.222C271.967 183.222 270.21 185.519 272.778 188.989C275.347 192.46 277.462 195.388 276.606 197.552C276.606 197.552 272.734 191.108 269.579 191.016C266.424 190.925 268.512 187.095 271.967 183.222Z" fill="#6C63FF"/>
<path opacity="0.1" d="M271.967 183.222C271.814 183.444 271.693 183.686 271.608 183.942C268.533 187.558 266.892 190.933 269.851 191.016C272.603 191.096 275.909 196.025 276.7 197.267C276.676 197.368 276.644 197.467 276.606 197.563C276.606 197.563 272.734 191.12 269.579 191.028C266.424 190.936 268.512 187.095 271.967 183.222Z" fill="black"/>
<path d="M268.702 186.15C268.702 186.959 268.791 187.614 268.904 187.614C269.016 187.614 269.108 186.959 269.108 186.15C269.108 185.341 268.992 185.723 268.883 185.723C268.773 185.723 268.702 185.341 268.702 186.15Z" fill="#FFD037"/>
<path d="M267.582 187.116C268.29 187.501 268.909 187.736 268.963 187.638C269.016 187.54 268.486 187.146 267.778 186.749C267.07 186.351 267.348 186.642 267.295 186.749C267.242 186.855 266.871 186.728 267.582 187.116Z" fill="#FFD037"/>
<path opacity="0.1" d="M276.608 215.132C286.752 215.132 294.975 213.871 294.975 212.314C294.975 210.757 286.752 209.495 276.608 209.495C266.465 209.495 258.242 210.757 258.242 212.314C258.242 213.871 266.465 215.132 276.608 215.132Z" fill="#6C63FF"/>
<path d="M286.061 194.454L285.972 195.172L285.848 196.185L285.798 196.609L285.673 197.623L285.62 198.046L285.499 199.057L284.091 210.586C283.967 211.614 282.287 212.418 280.258 212.418H272.956C270.927 212.418 269.25 211.614 269.123 210.586L267.716 199.057L267.591 198.046L267.541 197.623L267.416 196.609L267.363 196.185L267.242 195.172L267.153 194.454C267.085 193.862 267.991 193.381 269.141 193.381H284.077C285.223 193.381 286.132 193.871 286.061 194.454Z" fill="#65617D"/>
<path d="M285.973 195.172L285.851 196.185H267.366L267.242 195.172H285.973Z" fill="#9D9CB5"/>
<path d="M285.798 196.609L285.676 197.623H267.541L267.416 196.609H285.798Z" fill="#9D9CB5"/>
<path d="M285.623 198.046L285.498 199.06H267.715L267.594 198.046H285.623Z" fill="#9D9CB5"/>
</g>
<defs>
<linearGradient id="paint0_linear" x1="161.933" y1="148.756" x2="161.933" y2="-3.71099e-05" gradientUnits="userSpaceOnUse">
<stop stop-color="#808080" stop-opacity="0.25"/>
<stop offset="0.54" stop-color="#808080" stop-opacity="0.12"/>
<stop offset="1" stop-color="#808080" stop-opacity="0.1"/>
</linearGradient>
<clipPath id="clip0">
<rect width="303" height="241" fill="white"/>
</clipPath>
</defs>
</svg>
