<svg width="32" height="32" viewBox="0 0 32 32" fill="none" xmlns="http://www.w3.org/2000/svg">
<g clip-path="url(#clip0)">
<path d="M30.1213 10.0039L25.5426 4.79C23.9326 2.95662 21.847 1.64619 19.5519 0.976937C18.4091 0.64375 17.2147 0.46875 16.0006 0.46875C12.3487 0.46875 8.87112 2.04362 6.45962 4.78944L1.88018 10.0037C0.297867 11.8055 0.297742 14.5226 1.87987 16.324L6.45737 21.5357C8.8713 24.2841 12.3494 25.8612 15.9999 25.8625H16.0045H16.0047C19.6551 25.8625 23.1358 24.2824 25.5541 21.5274L30.122 16.3234C31.7034 14.5219 31.7031 11.8051 30.1213 10.0039V10.0039Z" fill="#8288CB"/>
<path d="M8.96768 13.1641C8.96768 8.59987 11.8744 4.7145 15.9374 3.25781C17.2936 2.77156 18.5189 1.98025 19.5519 0.976937C18.4091 0.64375 17.2147 0.46875 16.0006 0.46875C12.3487 0.46875 8.87112 2.04362 6.45962 4.78944L1.88018 10.0037C0.297867 11.8055 0.297742 14.5226 1.87987 16.324L6.45737 21.5357C8.8713 24.2841 12.3494 25.8612 15.9999 25.8625H16.0045L16.0006 23.0923C11.9045 21.6534 8.96768 17.7517 8.96768 13.1641Z" fill="#676FB2"/>
<path d="M24.0497 28.0356C22.6778 24.8893 19.5548 22.7543 16.0004 22.7543C16.0003 22.7543 16.0003 22.7543 16.0003 22.7543C12.4262 22.7543 9.31438 24.909 7.95101 28.0358C7.48376 29.1074 7.22363 30.2893 7.22363 31.5311H16.0004H24.7771C24.7771 30.2893 24.517 29.1073 24.0497 28.0356V28.0356Z" fill="#8288CB"/>
<path d="M7.95101 28.0358C7.48376 29.1074 7.22363 30.2894 7.22363 31.5312H11.612C11.8373 30.151 12.3348 28.86 13.05 27.7169V23.2662C10.7747 24.0814 8.92051 25.8123 7.95101 28.0358V28.0358Z" fill="#676FB2"/>
<path d="M22.0589 20.6782H9.94132C8.3542 22.2653 8.3542 24.8385 9.94132 26.4256L11.9192 28.5283C12.9782 29.6541 14.4551 30.2925 16.0008 30.2925C17.547 30.2925 19.0245 29.6536 20.0836 28.527L22.0589 26.4255C23.646 24.8385 23.646 22.2653 22.0589 20.6782V20.6782Z" fill="#676FB2"/>
<path d="M16.0006 21.678L13.0498 23.2649C13.5679 24.6238 14.6044 25.7001 16.0006 26.4467C17.3968 25.7001 18.4316 24.6237 18.9497 23.2649H18.9499L16.0006 21.678Z" fill="#FFCBBE"/>
<path d="M5.47982 15.7796C6.92436 15.7796 8.09538 14.6086 8.09538 13.164C8.09538 11.7195 6.92436 10.5485 5.47982 10.5485C4.03529 10.5485 2.86426 11.7195 2.86426 13.164C2.86426 14.6086 4.03529 15.7796 5.47982 15.7796Z" fill="#FFCBBE"/>
<path d="M26.5208 15.7796C27.9654 15.7796 29.1364 14.6086 29.1364 13.164C29.1364 11.7195 27.9654 10.5485 26.5208 10.5485C25.0763 10.5485 23.9053 11.7195 23.9053 13.164C23.9053 14.6086 25.0763 15.7796 26.5208 15.7796Z" fill="#FFCBBE"/>
<path d="M18.9511 23.2657C23.3258 21.9905 26.5224 17.9512 26.5224 13.165C26.5224 7.94866 22.7261 3.61903 17.7456 2.78822C17.1784 2.6936 16.5958 2.64441 16.0018 2.64441C10.1917 2.64441 5.48145 7.3546 5.48145 13.165C5.48145 17.9512 8.67807 21.9905 13.0526 23.2657C13.9884 23.5385 14.9779 23.6853 16.0018 23.6853C16.5959 23.6853 17.1784 23.6359 17.7456 23.5411C18.1559 23.4725 18.5583 23.3802 18.9511 23.2657V23.2657Z" fill="#FFDDCF"/>
<path d="M8.96791 13.164C8.96791 7.94774 12.7644 3.61812 17.7446 2.78725C17.1773 2.69262 16.595 2.64343 16.0008 2.64343C10.1907 2.64343 5.48047 7.35362 5.48047 13.164C5.48047 18.9742 10.1907 23.6844 16.0008 23.6844C16.595 23.6844 17.1773 23.6347 17.7446 23.5401C12.7644 22.7093 8.96791 18.3801 8.96791 13.164V13.164Z" fill="#FFCBBE"/>
<path d="M10.2646 18.4103C11.4209 18.4103 12.3583 17.6638 12.3583 16.743C12.3583 15.8222 11.4209 15.0757 10.2646 15.0757C9.10827 15.0757 8.1709 15.8222 8.1709 16.743C8.1709 17.6638 9.10827 18.4103 10.2646 18.4103Z" fill="#FFCBBE"/>
<path d="M21.7273 18.4103C22.8883 18.4103 23.8295 17.6638 23.8295 16.743C23.8295 15.8222 22.8883 15.0757 21.7273 15.0757C20.5662 15.0757 19.625 15.8222 19.625 16.743C19.625 17.6638 20.5662 18.4103 21.7273 18.4103Z" fill="#FFCBBE"/>
<path d="M24.8266 5.62453C23.192 3.71265 20.9813 2.38415 18.5481 1.83778C18.3412 1.79134 18.1328 1.74984 17.9229 1.71484C17.2917 1.60953 16.6448 1.55615 16.0002 1.55615C10.8096 1.55615 6.40402 4.98097 4.92383 9.68953L5.80252 10.5682C6.71095 11.5389 7.78689 12.3347 8.96933 12.9573C14.3825 15.8078 22.0395 15.0122 26.1982 10.5683L27.0757 9.69078C26.6108 8.20784 25.8501 6.82171 24.8266 5.62453V5.62453Z" fill="#8288CB"/>
<path d="M15.9369 3.25784C16.877 2.92078 17.7541 2.43684 18.5481 1.83778C18.3412 1.79134 18.1328 1.74984 17.9229 1.71484C17.2917 1.60953 16.6448 1.55615 16.0002 1.55615C10.8096 1.55615 6.40401 4.98097 4.92383 9.68953L5.80251 10.5682C6.71095 11.5389 7.78689 12.3347 8.96932 12.9573C9.05557 8.48284 11.9354 4.69246 15.9369 3.25784V3.25784Z" fill="#676FB2"/>
<path d="M19.6028 9.30155L17.8839 6.32442C17.0464 4.87367 14.9544 4.87424 14.1173 6.32442L12.3984 9.30155C11.5608 10.7523 12.6073 12.5637 14.2818 12.5637H17.7194C19.3946 12.5637 20.4401 10.7517 19.6028 9.30155V9.30155ZM16.0004 10.3888C15.2366 10.3887 14.7593 9.56187 15.1411 8.90043C15.5231 8.23886 16.4779 8.23893 16.8598 8.90049C17.2416 9.56187 16.7644 10.3888 16.0004 10.3888V10.3888Z" fill="#FFCE71"/>
<path d="M30.4734 9.69456C25.4593 3.985 25.6899 4.22937 25.2281 3.77581C25.0435 3.59444 24.7467 3.597 24.5652 3.78169C24.3839 3.96637 24.3865 4.26319 24.5712 4.44456C24.9987 4.86462 24.7414 4.58819 29.7689 10.3131C31.1965 11.9387 31.1942 14.3912 29.7696 16.0142C28.8976 17.0076 28.184 17.8258 27.5545 18.5477C25.2945 21.1391 24.5481 21.9949 23.6368 22.7178C23.5574 22.2853 23.4142 21.8615 23.2062 21.4609C24.7455 20.1172 25.9469 18.3192 26.5556 16.2474C29.3844 16.2143 30.6625 12.7096 28.564 10.8533C27.9124 10.277 27.0449 10.0041 26.1784 10.1001C26.0513 10.1055 25.9359 10.1628 25.8562 10.248C21.9639 14.4069 14.6424 15.4149 9.18792 12.5425C7.32942 11.5638 6.4013 10.4934 6.12667 10.2303C6.04386 10.1513 5.94092 10.1086 5.83505 10.1014C4.96436 10.0014 4.09173 10.2744 3.43686 10.8535C1.31923 12.7263 2.64517 16.2154 5.44598 16.2474C5.82973 17.5535 6.46098 18.7942 7.32673 19.907C7.77067 20.4776 8.26261 20.9962 8.79392 21.4602C8.58567 21.8611 8.44236 22.2854 8.36286 22.7183C7.49398 22.0331 6.79136 21.2287 4.39236 18.4826C3.77617 17.7772 3.07767 16.9778 2.2318 16.0146C0.803797 14.3888 0.806735 11.9361 2.23211 10.3131L6.81155 5.09875C9.13417 2.45425 12.4834 0.9375 16.0004 0.9375C18.5633 0.9375 21.1181 1.76888 23.1942 3.27863C23.4036 3.43075 23.6967 3.38456 23.849 3.17519C24.0014 2.96581 23.955 2.67263 23.7457 2.52038C21.5105 0.895063 18.7599 0 16.0004 0C12.2136 0 8.60773 1.63294 6.10723 4.48012L1.5278 9.69444C-0.211203 11.6746 -0.208265 14.6569 1.52748 16.6333C2.37255 17.5955 3.07055 18.3945 3.68642 19.0994C6.50748 22.3288 7.05155 22.9514 8.29736 23.8382C8.33905 24.4865 8.51867 25.1249 8.82955 25.7049C8.62336 25.9582 8.42992 26.2226 8.25255 26.4943C8.11105 26.7111 8.17205 27.0016 8.3888 27.1431C8.6058 27.2847 8.89611 27.2234 9.03755 27.0068C9.14698 26.8392 9.26336 26.6747 9.38542 26.5142C9.45542 26.5954 9.52786 26.6751 9.60442 26.7519L11.5776 28.8496C12.6129 29.9503 14.0335 30.6258 15.5318 30.7431V31.0625H7.70555C7.75305 30.2121 7.92992 29.3804 8.23317 28.5846C8.32536 28.3427 8.20398 28.0719 7.96205 27.9797C7.72017 27.8875 7.4493 28.0089 7.35711 28.2508C6.95755 29.2993 6.75498 30.4031 6.75492 31.5312C6.75492 31.6556 6.8043 31.7748 6.89223 31.8627C6.98011 31.9506 7.09936 32 7.22367 32H24.7773C25.0362 32 25.246 31.7901 25.246 31.5312C25.246 29.4072 24.5112 27.3513 23.1708 25.7039C23.481 25.1248 23.6604 24.4874 23.7024 23.8402C24.9713 22.9361 25.559 22.2622 28.261 19.1639C28.8901 18.4425 29.6032 17.6249 30.4742 16.6326C32.212 14.6528 32.2088 11.6708 30.4734 9.69456V9.69456ZM27.9428 11.5556C29.3303 12.7829 28.6035 15.0749 26.7891 15.2952C27.064 13.9059 27.067 12.4616 26.7835 11.0324C27.2106 11.0831 27.6104 11.2616 27.9428 11.5556ZM5.21242 15.2952C3.40892 15.0766 2.66248 12.79 4.05792 11.5557C4.39061 11.2616 4.79048 11.083 5.2178 11.0323C4.93436 12.4616 4.93748 13.9057 5.21242 15.2952V15.2952ZM15.5317 29.801C14.2915 29.6861 13.1192 29.1202 12.2604 28.2072L10.2825 26.1044C10.2793 26.1009 10.276 26.0976 10.2725 26.0941C9.20692 25.0285 8.93442 23.4021 9.54455 22.0601C10.5047 22.7604 11.5695 23.2966 12.7015 23.6509C13.2376 24.9014 14.2089 25.9553 15.5318 26.7214V29.801H15.5317ZM13.9166 23.9559C14.5957 24.0856 15.2925 24.1532 16.0004 24.1532C16.7079 24.1532 17.4043 24.0857 18.083 23.9562C17.5994 24.7285 16.8941 25.3925 16.0005 25.9104C15.106 25.3921 14.4003 24.728 13.9166 23.9559ZM19.2979 23.6514C20.43 23.2972 21.495 22.7612 22.4555 22.0607C23.0652 23.4027 22.7926 25.0288 21.7272 26.0942C21.7238 26.0976 21.7205 26.1011 21.7172 26.1046L19.7419 28.2061C18.8829 29.1198 17.7101 29.6861 16.4693 29.8011V26.7216C17.7907 25.9561 18.7614 24.9024 19.2979 23.6514V23.6514ZM24.2952 31.0625H16.4692V30.743C17.9682 30.6257 19.3893 29.9497 20.4249 28.8481L22.3954 26.7518C22.4722 26.6748 22.5449 26.5949 22.615 26.5134C23.6161 27.8307 24.2017 29.4141 24.2952 31.0625V31.0625ZM18.8482 22.8085L18.8479 22.8072C18.7504 22.8289 17.6078 23.2157 16.0004 23.2157C12.879 23.2157 9.9873 21.7999 8.0668 19.3314C6.32117 17.0876 5.61823 14.2761 6.08461 11.5056C8.72411 13.9294 12.4002 15.0989 15.984 15.0989C19.5449 15.0989 23.2384 13.9636 25.9168 11.5056C26.7778 16.62 23.5961 21.4142 18.8482 22.8085V22.8085Z" fill="black"/>
<path d="M13.7112 6.08995L11.9923 9.06708C10.9746 10.8298 12.2443 13.0323 14.2816 13.0323H17.7193C19.7547 13.0323 21.0274 10.8315 20.0086 9.06708L18.2898 6.09001C17.2722 4.32733 14.7297 4.32558 13.7112 6.08995V6.08995ZM17.7193 12.0948H14.2816C12.9675 12.0948 12.1467 10.6746 12.8042 9.53583L14.5231 6.5587C15.1799 5.42095 16.8204 5.41976 17.4779 6.5587L19.1967 9.53583C19.8539 10.674 19.0342 12.0948 17.7193 12.0948Z" fill="black"/>
<path d="M14.7352 8.66597C14.1728 9.63972 14.8747 10.8574 16.0003 10.8575C17.1248 10.8575 17.8285 9.64097 17.2657 8.66603C16.7039 7.69271 15.298 7.69109 14.7352 8.66597V8.66597ZM16.0003 9.92003C15.5977 9.91997 15.3452 9.48434 15.547 9.13478C15.7485 8.78565 16.2524 8.7859 16.4538 9.13478C16.6556 9.48428 16.4033 9.92003 16.0003 9.92003V9.92003Z" fill="black"/>
<path d="M17.3378 16.4367C17.1427 16.2666 16.8466 16.2869 16.6765 16.4821C16.5058 16.6778 16.2596 16.7901 16.0008 16.7901C15.742 16.7901 15.4957 16.6778 15.3251 16.4821C15.155 16.2869 14.8588 16.2666 14.6637 16.4367C14.4685 16.6068 14.4482 16.9029 14.6183 17.0981C14.967 17.4981 15.4709 17.7276 16.0007 17.7276C16.5305 17.7276 17.0344 17.4982 17.3831 17.0981C17.5533 16.9029 17.533 16.6068 17.3378 16.4367Z" fill="black"/>
</g>
<defs>
<clipPath id="clip0">
<rect width="32" height="32" fill="white"/>
</clipPath>
</defs>
</svg>
