<svg width="192" height="164" viewBox="0 0 192 164" fill="none" xmlns="http://www.w3.org/2000/svg">
<rect x="1" y="1" width="190" height="162" rx="3" fill="#F2F2F2" stroke="#CCCCCC" stroke-width="2"/>
<path fill-rule="evenodd" clip-rule="evenodd" d="M85.874 62.6908C86.0157 62.4938 86.1731 62.2526 86.3737 61.9274C86.447 61.8087 86.6469 61.4789 86.7958 61.2333L86.7959 61.2331L86.7961 61.2327C86.8755 61.1018 86.9402 60.995 86.9635 60.9568C88.6215 58.2448 89.8267 57 91.9999 57H99.9999C102.173 57 103.378 58.2448 105.036 60.9568C105.06 60.995 105.125 61.1021 105.204 61.2333C105.353 61.4789 105.553 61.8087 105.626 61.9274C105.827 62.2526 105.984 62.4938 106.126 62.6908C106.219 62.8207 106.301 62.9239 106.368 63H112C115.314 63 118 65.6863 118 69V87C118 90.3137 115.314 93 112 93H79.9999C76.6862 93 73.9999 90.3137 73.9999 87V69C73.9999 65.6863 76.6862 63 79.9999 63H85.6323C85.6989 62.9239 85.7805 62.8207 85.874 62.6908ZM79.1111 66.4286C77.9451 66.4286 76.9999 67.388 76.9999 68.5714V87.8571C76.9999 89.0406 77.9451 90 79.1111 90H112.889C114.055 90 115 89.0406 115 87.8571V68.5714C115 67.388 114.055 66.4286 112.889 66.4286H106.555C105.153 66.4286 104.207 65.6494 103.261 64.3141C103.043 64.0069 102.827 63.6714 102.568 63.2445C102.479 63.0982 102.248 62.7114 102.09 62.446C102.014 62.3203 101.956 62.2218 101.936 62.1891C100.981 60.6037 100.405 60 100.222 60H91.7777C91.5946 60 91.0188 60.6037 90.0639 62.1891C90.0442 62.2218 89.9854 62.3203 89.9104 62.446L89.91 62.4466C89.7516 62.7119 89.5209 63.0983 89.432 63.2445C89.1724 63.6714 88.9567 64.0069 88.739 64.3141C87.7927 65.6494 86.8469 66.4286 85.4444 66.4286H79.1111ZM112 71C112 72.1046 111.105 73 110 73C108.895 73 108 72.1046 108 71C108 69.8954 108.895 69 110 69C111.105 69 112 69.8954 112 71ZM86.9999 77C86.9999 82.5229 90.4771 86 95.9999 86C101.523 86 105 82.5229 105 77C105 71.4772 101.523 68 95.9999 68C90.4771 68 86.9999 71.4772 86.9999 77ZM102 77C102 80.3137 99.3137 83 96 83C92.6863 83 90 80.3137 90 77C90 73.6863 92.6863 71 96 71C99.3137 71 102 73.6863 102 77Z" fill="#9F9F9F"/>
<path d="M27.094 106.204C27.3647 106.204 27.6353 106.185 27.906 106.148C28.1767 106.101 28.4193 106.027 28.634 105.924C28.8487 105.812 29.0213 105.667 29.152 105.49C29.2827 105.303 29.348 105.07 29.348 104.79C29.348 104.426 29.194 104.137 28.886 103.922C28.5873 103.707 28.172 103.6 27.64 103.6C27.1267 103.6 26.6693 103.661 26.268 103.782C25.876 103.894 25.5447 104.029 25.274 104.188L24.7 102.774C24.9987 102.587 25.4047 102.429 25.918 102.298C26.4407 102.158 27.0193 102.088 27.654 102.088C28.158 102.088 28.6247 102.144 29.054 102.256C29.4833 102.359 29.852 102.522 30.16 102.746C30.468 102.97 30.7107 103.25 30.888 103.586C31.0653 103.922 31.154 104.314 31.154 104.762C31.154 105.173 31.0373 105.565 30.804 105.938C30.5707 106.302 30.216 106.587 29.74 106.792C29.992 106.885 30.23 107.002 30.454 107.142C30.678 107.282 30.874 107.455 31.042 107.66C31.21 107.865 31.3407 108.103 31.434 108.374C31.5367 108.635 31.588 108.934 31.588 109.27C31.588 109.793 31.4947 110.241 31.308 110.614C31.1213 110.978 30.8553 111.281 30.51 111.524C30.1647 111.757 29.74 111.93 29.236 112.042C28.7413 112.154 28.186 112.21 27.57 112.21C27.2247 112.21 26.8933 112.187 26.576 112.14C26.2587 112.093 25.96 112.033 25.68 111.958C25.4 111.883 25.148 111.804 24.924 111.72C24.7 111.627 24.5133 111.543 24.364 111.468L24.882 110.054C25.0033 110.11 25.1527 110.175 25.33 110.25C25.5073 110.315 25.708 110.381 25.932 110.446C26.156 110.511 26.3987 110.567 26.66 110.614C26.9213 110.661 27.1873 110.684 27.458 110.684C28.186 110.684 28.746 110.577 29.138 110.362C29.5393 110.138 29.74 109.755 29.74 109.214C29.74 108.897 29.67 108.635 29.53 108.43C29.3993 108.225 29.2127 108.066 28.97 107.954C28.7367 107.842 28.4567 107.767 28.13 107.73C27.8033 107.683 27.4533 107.66 27.08 107.66H25.988V106.204H27.094ZM35.9118 110.81C36.4345 110.81 36.8311 110.782 37.1018 110.726V108.85C37.0085 108.822 36.8731 108.794 36.6958 108.766C36.5185 108.738 36.3225 108.724 36.1078 108.724C35.9211 108.724 35.7298 108.738 35.5338 108.766C35.3471 108.794 35.1745 108.845 35.0158 108.92C34.8665 108.995 34.7451 109.102 34.6518 109.242C34.5585 109.373 34.5118 109.541 34.5118 109.746C34.5118 110.147 34.6378 110.427 34.8898 110.586C35.1418 110.735 35.4825 110.81 35.9118 110.81ZM35.7718 104.496C36.3318 104.496 36.8031 104.566 37.1858 104.706C37.5685 104.846 37.8718 105.042 38.0958 105.294C38.3291 105.546 38.4925 105.854 38.5858 106.218C38.6885 106.573 38.7398 106.965 38.7398 107.394V111.832C38.4785 111.888 38.0818 111.953 37.5498 112.028C37.0271 112.112 36.4345 112.154 35.7718 112.154C35.3331 112.154 34.9318 112.112 34.5678 112.028C34.2038 111.944 33.8911 111.809 33.6298 111.622C33.3778 111.435 33.1771 111.193 33.0278 110.894C32.8878 110.595 32.8178 110.227 32.8178 109.788C32.8178 109.368 32.8971 109.013 33.0558 108.724C33.2238 108.435 33.4478 108.201 33.7278 108.024C34.0078 107.837 34.3298 107.707 34.6938 107.632C35.0671 107.548 35.4545 107.506 35.8558 107.506C36.0425 107.506 36.2385 107.52 36.4438 107.548C36.6491 107.567 36.8685 107.604 37.1018 107.66V107.38C37.1018 107.184 37.0785 106.997 37.0318 106.82C36.9851 106.643 36.9011 106.489 36.7798 106.358C36.6678 106.218 36.5138 106.111 36.3178 106.036C36.1311 105.961 35.8931 105.924 35.6038 105.924C35.2118 105.924 34.8525 105.952 34.5258 106.008C34.1991 106.064 33.9331 106.129 33.7278 106.204L33.5178 104.832C33.7325 104.757 34.0451 104.683 34.4558 104.608C34.8665 104.533 35.3051 104.496 35.7718 104.496ZM45.6723 106.078H42.5083V112H40.8143V104.678H45.6723V106.078ZM51.7837 108.374C51.7837 107.618 51.611 107.03 51.2657 106.61C50.9297 106.19 50.3837 105.98 49.6277 105.98C49.469 105.98 49.301 105.989 49.1237 106.008C48.9557 106.017 48.7877 106.045 48.6197 106.092V110.278C48.769 110.381 48.965 110.479 49.2077 110.572C49.4597 110.656 49.7257 110.698 50.0057 110.698C50.6217 110.698 51.0697 110.488 51.3497 110.068C51.639 109.648 51.7837 109.083 51.7837 108.374ZM53.5197 108.346C53.5197 108.906 53.445 109.419 53.2957 109.886C53.1557 110.353 52.9503 110.754 52.6797 111.09C52.409 111.426 52.0683 111.687 51.6577 111.874C51.2563 112.061 50.799 112.154 50.2857 112.154C49.9403 112.154 49.623 112.112 49.3337 112.028C49.0443 111.944 48.8063 111.851 48.6197 111.748V114.59H46.9257V104.916C47.271 104.823 47.6957 104.734 48.1997 104.65C48.7037 104.566 49.2357 104.524 49.7957 104.524C50.3743 104.524 50.8923 104.613 51.3497 104.79C51.807 104.967 52.1943 105.224 52.5117 105.56C52.8383 105.887 53.0857 106.288 53.2537 106.764C53.431 107.231 53.5197 107.758 53.5197 108.346ZM61.0794 104.678C60.3234 107.459 59.4461 109.979 58.4474 112.238C58.2608 112.658 58.0694 113.017 57.8734 113.316C57.6774 113.615 57.4581 113.862 57.2154 114.058C56.9728 114.254 56.7021 114.394 56.4034 114.478C56.1048 114.571 55.7594 114.618 55.3674 114.618C55.1061 114.618 54.8448 114.59 54.5834 114.534C54.3314 114.478 54.1401 114.417 54.0094 114.352L54.3174 112.994C54.6534 113.125 54.9848 113.19 55.3114 113.19C55.7501 113.19 56.0908 113.083 56.3334 112.868C56.5854 112.663 56.8048 112.341 56.9914 111.902C56.4594 110.875 55.9461 109.755 55.4514 108.542C54.9661 107.329 54.5321 106.041 54.1494 104.678H55.9554C56.0488 105.07 56.1608 105.495 56.2914 105.952C56.4314 106.409 56.5808 106.876 56.7394 107.352C56.8981 107.819 57.0661 108.285 57.2434 108.752C57.4208 109.219 57.5981 109.653 57.7754 110.054C58.0741 109.223 58.3541 108.341 58.6154 107.408C58.8768 106.465 59.1148 105.555 59.3294 104.678H61.0794ZM62.0392 104.902C62.1605 104.855 62.3099 104.809 62.4872 104.762C62.6645 104.715 62.8559 104.673 63.0612 104.636C63.2665 104.599 63.4812 104.571 63.7052 104.552C63.9385 104.524 64.1719 104.51 64.4052 104.51C64.8065 104.51 65.1892 104.547 65.5532 104.622C65.9172 104.697 66.2345 104.818 66.5052 104.986C66.7759 105.154 66.9905 105.369 67.1492 105.63C67.3172 105.891 67.4012 106.204 67.4012 106.568C67.4012 106.96 67.2939 107.291 67.0792 107.562C66.8645 107.833 66.6172 108.033 66.3372 108.164C66.7572 108.323 67.0792 108.556 67.3032 108.864C67.5272 109.172 67.6392 109.564 67.6392 110.04C67.6392 110.423 67.5552 110.749 67.3872 111.02C67.2285 111.291 67.0045 111.515 66.7152 111.692C66.4352 111.86 66.1039 111.981 65.7212 112.056C65.3385 112.14 64.9232 112.182 64.4752 112.182C63.9339 112.182 63.4299 112.135 62.9632 112.042C62.4965 111.958 62.1279 111.855 61.8572 111.734L62.1512 110.362C62.3285 110.437 62.6132 110.525 63.0052 110.628C63.3972 110.721 63.8592 110.768 64.3912 110.768C65.4179 110.768 65.9312 110.469 65.9312 109.872C65.9312 109.657 65.8845 109.485 65.7912 109.354C65.6979 109.223 65.5812 109.125 65.4412 109.06C65.3012 108.985 65.1425 108.939 64.9652 108.92C64.7879 108.892 64.6152 108.878 64.4472 108.878H63.0472V107.618H64.4332C64.7785 107.618 65.0725 107.557 65.3152 107.436C65.5672 107.305 65.6932 107.081 65.6932 106.764C65.6932 106.503 65.5719 106.297 65.3292 106.148C65.0959 105.989 64.7645 105.91 64.3352 105.91C64.1485 105.91 63.9572 105.924 63.7612 105.952C63.5652 105.971 63.3739 105.999 63.1872 106.036C63.0099 106.073 62.8465 106.115 62.6972 106.162C62.5479 106.199 62.4312 106.237 62.3472 106.274L62.0392 104.902ZM75.7732 104.678V112H74.0932C74.0932 111.468 74.0932 110.941 74.0932 110.418C74.1025 109.895 74.1072 109.41 74.1072 108.962C74.1165 108.514 74.1212 108.127 74.1212 107.8C74.1305 107.464 74.1352 107.217 74.1352 107.058C73.8552 107.422 73.5659 107.823 73.2672 108.262C72.9685 108.701 72.6699 109.139 72.3712 109.578C72.0819 110.017 71.8065 110.446 71.5452 110.866C71.2839 111.286 71.0552 111.664 70.8592 112H69.3612V104.678H71.0272C71.0272 105.219 71.0225 105.737 71.0132 106.232C71.0132 106.717 71.0132 107.161 71.0132 107.562C71.0132 107.963 71.0085 108.313 70.9992 108.612C70.9992 108.911 70.9992 109.139 70.9992 109.298C71.2605 108.897 71.5312 108.486 71.8112 108.066C72.0912 107.637 72.3712 107.221 72.6512 106.82C72.9405 106.409 73.2252 106.022 73.5052 105.658C73.7852 105.294 74.0559 104.967 74.3172 104.678H75.7732ZM83.4495 106.092H81.0835V112H79.3895V106.092H77.0375V104.678H83.4495V106.092ZM84.3087 108.374C84.3087 107.73 84.4021 107.165 84.5887 106.68C84.7847 106.195 85.0414 105.793 85.3587 105.476C85.6761 105.149 86.0401 104.907 86.4507 104.748C86.8614 104.58 87.2814 104.496 87.7107 104.496C88.7187 104.496 89.5027 104.809 90.0627 105.434C90.6321 106.059 90.9167 106.993 90.9167 108.234C90.9167 108.327 90.9121 108.435 90.9027 108.556C90.9027 108.668 90.8981 108.771 90.8887 108.864H86.0587C86.1054 109.452 86.3107 109.909 86.6747 110.236C87.0481 110.553 87.5847 110.712 88.2847 110.712C88.6954 110.712 89.0687 110.675 89.4047 110.6C89.7501 110.525 90.0207 110.446 90.2167 110.362L90.4407 111.748C90.3474 111.795 90.2167 111.846 90.0487 111.902C89.8901 111.949 89.7034 111.991 89.4887 112.028C89.2834 112.075 89.0594 112.112 88.8167 112.14C88.5741 112.168 88.3267 112.182 88.0747 112.182C87.4307 112.182 86.8707 112.089 86.3947 111.902C85.9187 111.706 85.5267 111.44 85.2187 111.104C84.9107 110.759 84.6821 110.357 84.5327 109.9C84.3834 109.433 84.3087 108.925 84.3087 108.374ZM89.2227 107.618C89.2227 107.385 89.1901 107.165 89.1247 106.96C89.0594 106.745 88.9614 106.563 88.8307 106.414C88.7094 106.255 88.5554 106.134 88.3687 106.05C88.1914 105.957 87.9767 105.91 87.7247 105.91C87.4634 105.91 87.2347 105.961 87.0387 106.064C86.8427 106.157 86.6747 106.283 86.5347 106.442C86.4041 106.601 86.3014 106.783 86.2267 106.988C86.1521 107.193 86.1007 107.403 86.0727 107.618H89.2227ZM98.8923 112.14C98.6217 112.14 98.3463 112.131 98.0663 112.112C97.7863 112.093 97.5157 112.07 97.2543 112.042C97.0023 112.014 96.7643 111.986 96.5403 111.958C96.3163 111.921 96.1297 111.883 95.9803 111.846V104.776C96.1297 104.739 96.3163 104.706 96.5403 104.678C96.7643 104.641 97.0023 104.613 97.2543 104.594C97.5157 104.566 97.7863 104.547 98.0663 104.538C98.3463 104.519 98.6217 104.51 98.8923 104.51C99.8817 104.51 100.652 104.692 101.202 105.056C101.753 105.411 102.028 105.91 102.028 106.554C102.028 106.89 101.944 107.189 101.776 107.45C101.608 107.711 101.389 107.907 101.118 108.038C101.454 108.169 101.744 108.374 101.986 108.654C102.229 108.934 102.35 109.331 102.35 109.844C102.35 110.581 102.061 111.151 101.482 111.552C100.904 111.944 100.04 112.14 98.8923 112.14ZM98.9343 107.618C99.3543 107.618 99.6997 107.557 99.9703 107.436C100.25 107.315 100.39 107.072 100.39 106.708C100.39 106.531 100.344 106.386 100.25 106.274C100.166 106.162 100.05 106.073 99.9003 106.008C99.751 105.943 99.5783 105.901 99.3823 105.882C99.1863 105.854 98.981 105.84 98.7663 105.84C98.5983 105.84 98.4023 105.845 98.1783 105.854C97.9637 105.863 97.791 105.877 97.6603 105.896V107.618H98.9343ZM97.6603 110.74C97.7723 110.759 97.9543 110.777 98.2063 110.796C98.4677 110.805 98.7103 110.81 98.9343 110.81C99.4383 110.81 99.8537 110.74 100.18 110.6C100.516 110.46 100.684 110.194 100.684 109.802C100.684 109.419 100.53 109.158 100.222 109.018C99.9237 108.869 99.5317 108.794 99.0463 108.794H97.6603V110.74ZM106.527 110.81C107.05 110.81 107.446 110.782 107.717 110.726V108.85C107.624 108.822 107.488 108.794 107.311 108.766C107.134 108.738 106.938 108.724 106.723 108.724C106.536 108.724 106.345 108.738 106.149 108.766C105.962 108.794 105.79 108.845 105.631 108.92C105.482 108.995 105.36 109.102 105.267 109.242C105.174 109.373 105.127 109.541 105.127 109.746C105.127 110.147 105.253 110.427 105.505 110.586C105.757 110.735 106.098 110.81 106.527 110.81ZM106.387 104.496C106.947 104.496 107.418 104.566 107.801 104.706C108.184 104.846 108.487 105.042 108.711 105.294C108.944 105.546 109.108 105.854 109.201 106.218C109.304 106.573 109.355 106.965 109.355 107.394V111.832C109.094 111.888 108.697 111.953 108.165 112.028C107.642 112.112 107.05 112.154 106.387 112.154C105.948 112.154 105.547 112.112 105.183 112.028C104.819 111.944 104.506 111.809 104.245 111.622C103.993 111.435 103.792 111.193 103.643 110.894C103.503 110.595 103.433 110.227 103.433 109.788C103.433 109.368 103.512 109.013 103.671 108.724C103.839 108.435 104.063 108.201 104.343 108.024C104.623 107.837 104.945 107.707 105.309 107.632C105.682 107.548 106.07 107.506 106.471 107.506C106.658 107.506 106.854 107.52 107.059 107.548C107.264 107.567 107.484 107.604 107.717 107.66V107.38C107.717 107.184 107.694 106.997 107.647 106.82C107.6 106.643 107.516 106.489 107.395 106.358C107.283 106.218 107.129 106.111 106.933 106.036C106.746 105.961 106.508 105.924 106.219 105.924C105.827 105.924 105.468 105.952 105.141 106.008C104.814 106.064 104.548 106.129 104.343 106.204L104.133 104.832C104.348 104.757 104.66 104.683 105.071 104.608C105.482 104.533 105.92 104.496 106.387 104.496ZM111.43 104.678H113.124V110.614H115.42V104.678H117.114V110.614H119.41V104.678H121.104V112H111.43V104.678ZM122.85 108.374C122.85 107.73 122.943 107.165 123.13 106.68C123.326 106.195 123.582 105.793 123.9 105.476C124.217 105.149 124.581 104.907 124.992 104.748C125.402 104.58 125.822 104.496 126.252 104.496C127.26 104.496 128.044 104.809 128.604 105.434C129.173 106.059 129.458 106.993 129.458 108.234C129.458 108.327 129.453 108.435 129.444 108.556C129.444 108.668 129.439 108.771 129.43 108.864H124.6C124.646 109.452 124.852 109.909 125.216 110.236C125.589 110.553 126.126 110.712 126.826 110.712C127.236 110.712 127.61 110.675 127.946 110.6C128.291 110.525 128.562 110.446 128.758 110.362L128.982 111.748C128.888 111.795 128.758 111.846 128.59 111.902C128.431 111.949 128.244 111.991 128.03 112.028C127.824 112.075 127.6 112.112 127.358 112.14C127.115 112.168 126.868 112.182 126.616 112.182C125.972 112.182 125.412 112.089 124.936 111.902C124.46 111.706 124.068 111.44 123.76 111.104C123.452 110.759 123.223 110.357 123.074 109.9C122.924 109.433 122.85 108.925 122.85 108.374ZM127.764 107.618C127.764 107.385 127.731 107.165 127.666 106.96C127.6 106.745 127.502 106.563 127.372 106.414C127.25 106.255 127.096 106.134 126.91 106.05C126.732 105.957 126.518 105.91 126.266 105.91C126.004 105.91 125.776 105.961 125.58 106.064C125.384 106.157 125.216 106.283 125.076 106.442C124.945 106.601 124.842 106.783 124.768 106.988C124.693 107.193 124.642 107.403 124.614 107.618H127.764ZM138.077 106.106C137.415 106.143 136.873 106.353 136.453 106.736C136.033 107.109 135.823 107.655 135.823 108.374C135.823 109.093 136.029 109.634 136.439 109.998C136.859 110.362 137.405 110.567 138.077 110.614V106.106ZM139.715 110.614C140.014 110.605 140.299 110.558 140.569 110.474C140.849 110.381 141.092 110.241 141.297 110.054C141.503 109.867 141.666 109.634 141.787 109.354C141.909 109.074 141.969 108.743 141.969 108.36C141.969 107.977 141.909 107.646 141.787 107.366C141.666 107.086 141.503 106.857 141.297 106.68C141.092 106.493 140.849 106.353 140.569 106.26C140.299 106.167 140.014 106.115 139.715 106.106V110.614ZM139.715 114.59H138.077V112.042C137.48 112.014 136.934 111.907 136.439 111.72C135.954 111.533 135.539 111.281 135.193 110.964C134.848 110.637 134.577 110.255 134.381 109.816C134.195 109.377 134.101 108.892 134.101 108.36C134.101 107.837 134.195 107.361 134.381 106.932C134.568 106.503 134.829 106.129 135.165 105.812C135.511 105.495 135.926 105.243 136.411 105.056C136.906 104.86 137.461 104.739 138.077 104.692V101.43L139.715 101.136V104.692C140.247 104.72 140.751 104.818 141.227 104.986C141.713 105.154 142.137 105.392 142.501 105.7C142.865 106.008 143.155 106.386 143.369 106.834C143.584 107.273 143.691 107.781 143.691 108.36C143.691 108.948 143.584 109.466 143.369 109.914C143.164 110.362 142.879 110.74 142.515 111.048C142.151 111.347 141.727 111.58 141.241 111.748C140.765 111.916 140.257 112.014 139.715 112.042V114.59ZM152.054 108.332C152.054 108.911 151.97 109.438 151.802 109.914C151.634 110.39 151.396 110.796 151.088 111.132C150.78 111.468 150.406 111.729 149.968 111.916C149.538 112.103 149.062 112.196 148.54 112.196C148.017 112.196 147.541 112.103 147.112 111.916C146.682 111.729 146.314 111.468 146.006 111.132C145.698 110.796 145.455 110.39 145.278 109.914C145.11 109.438 145.026 108.911 145.026 108.332C145.026 107.753 145.11 107.231 145.278 106.764C145.455 106.288 145.698 105.882 146.006 105.546C146.323 105.21 146.696 104.953 147.126 104.776C147.555 104.589 148.026 104.496 148.54 104.496C149.053 104.496 149.524 104.589 149.954 104.776C150.392 104.953 150.766 105.21 151.074 105.546C151.382 105.882 151.62 106.288 151.788 106.764C151.965 107.231 152.054 107.753 152.054 108.332ZM150.318 108.332C150.318 107.604 150.159 107.03 149.842 106.61C149.534 106.181 149.1 105.966 148.54 105.966C147.98 105.966 147.541 106.181 147.224 106.61C146.916 107.03 146.762 107.604 146.762 108.332C146.762 109.069 146.916 109.653 147.224 110.082C147.541 110.511 147.98 110.726 148.54 110.726C149.1 110.726 149.534 110.511 149.842 110.082C150.159 109.653 150.318 109.069 150.318 108.332ZM159.315 106.092H156.949V112H155.255V106.092H152.903V104.678H159.315V106.092ZM167.202 108.332C167.202 108.911 167.118 109.438 166.95 109.914C166.782 110.39 166.544 110.796 166.236 111.132C165.928 111.468 165.555 111.729 165.116 111.916C164.687 112.103 164.211 112.196 163.688 112.196C163.165 112.196 162.689 112.103 162.26 111.916C161.831 111.729 161.462 111.468 161.154 111.132C160.846 110.796 160.603 110.39 160.426 109.914C160.258 109.438 160.174 108.911 160.174 108.332C160.174 107.753 160.258 107.231 160.426 106.764C160.603 106.288 160.846 105.882 161.154 105.546C161.471 105.21 161.845 104.953 162.274 104.776C162.703 104.589 163.175 104.496 163.688 104.496C164.201 104.496 164.673 104.589 165.102 104.776C165.541 104.953 165.914 105.21 166.222 105.546C166.53 105.882 166.768 106.288 166.936 106.764C167.113 107.231 167.202 107.753 167.202 108.332ZM165.466 108.332C165.466 107.604 165.307 107.03 164.99 106.61C164.682 106.181 164.248 105.966 163.688 105.966C163.128 105.966 162.689 106.181 162.372 106.61C162.064 107.03 161.91 107.604 161.91 108.332C161.91 109.069 162.064 109.653 162.372 110.082C162.689 110.511 163.128 110.726 163.688 110.726C164.248 110.726 164.682 110.511 164.99 110.082C165.307 109.653 165.466 109.069 165.466 108.332Z" fill="#9F9F9F"/>
</svg>
